<svg width="21" height="21" viewBox="0 0 21 21" fill="none" xmlns="http://www.w3.org/2000/svg">
<path d="M12.2747 9.94924C12.3529 9.64059 12.3495 9.31693 12.265 9.00996C12.1805 8.70299 12.0177 8.42324 11.7925 8.1981C11.5674 7.97297 11.2876 7.81016 10.9807 7.72563C10.6737 7.64111 10.3501 7.63776 10.0414 7.71591C9.39973 7.87424 8.87473 8.39924 8.7164 9.04091C8.63824 9.34956 8.6416 9.67322 8.72612 9.98019C8.81065 10.2872 8.97345 10.5669 9.19859 10.792C9.42373 11.0172 9.70348 11.18 10.0105 11.2645C10.3174 11.349 10.6411 11.3524 10.9497 11.2742C11.5997 11.1159 12.1247 10.5909 12.2747 9.94924Z" fill="#1AC727"/>
<path opacity="0.4" d="M5.51647 15.4751C5.36647 15.4751 5.20814 15.4167 5.09147 15.3084C4.2912 14.5653 3.65254 13.6653 3.21526 12.6646C2.77798 11.6639 2.55146 10.5838 2.5498 9.49175C2.5498 5.10841 6.11647 1.54175 10.4998 1.54175C14.8831 1.54175 18.4498 5.10841 18.4498 9.49175C18.4498 11.7084 17.5581 13.7584 15.9415 15.2834C15.6915 15.5167 15.2915 15.5084 15.0581 15.2584C14.8248 15.0084 14.8331 14.6084 15.0831 14.3751C15.7539 13.753 16.2883 12.9986 16.6526 12.1595C17.0169 11.3204 17.2032 10.4149 17.1998 9.50008C17.1998 5.80841 14.1915 2.80008 10.4998 2.80008C6.80814 2.80008 3.7998 5.80841 3.7998 9.50008C3.7998 11.3834 4.55814 13.1167 5.94147 14.4001C6.19147 14.6334 6.20814 15.0334 5.9748 15.2834C5.85343 15.4055 5.6886 15.4744 5.51647 15.4751Z" fill="#1AC727"/>
<path opacity="0.4" d="M13.8336 13.2491C13.712 13.249 13.5932 13.2132 13.4917 13.1462C13.3902 13.0793 13.3106 12.984 13.2627 12.8723C13.2149 12.7606 13.2008 12.6372 13.2223 12.5176C13.2437 12.3979 13.2998 12.2872 13.3836 12.1991C14.0753 11.4657 14.4586 10.4991 14.4586 9.49907C14.4586 7.31574 12.6836 5.54907 10.5086 5.54907C9.46167 5.55127 8.45825 5.96814 7.71795 6.70843C6.97766 7.44872 6.5608 8.45214 6.55859 9.49907C6.55859 10.5074 6.94193 11.4657 7.63359 12.1991C7.86693 12.4491 7.85859 12.8491 7.60859 13.0824C7.35859 13.3241 6.95859 13.3074 6.72526 13.0574C5.81673 12.0952 5.30998 10.8224 5.30859 9.49907C5.30859 6.63241 7.64193 4.29907 10.5086 4.29907C13.3753 4.29907 15.7086 6.63241 15.7086 9.49907C15.7086 10.8241 15.2086 12.0907 14.2919 13.0574C14.1706 13.1795 14.0057 13.2484 13.8336 13.2491Z" fill="#1AC727"/>
<path d="M9.08295 14.3841L7.88295 15.8758C6.93295 17.0675 7.77461 18.8258 9.29961 18.8258H11.6913C13.2163 18.8258 14.0663 17.0591 13.1079 15.8758L11.9079 14.3841C11.1913 13.4758 9.80795 13.4758 9.08295 14.3841Z" fill="#1AC727"/>
</svg>
