<svg width="41" height="42" viewBox="0 0 41 42" fill="none" xmlns="http://www.w3.org/2000/svg">
<circle cx="20.334" cy="20" r="20" fill="#E3FDE4"/>
<circle cx="20.334" cy="20" r="15" fill="#7DEE89"/>
<g filter="url(#filter0_d_286_69338)">
<rect x="10.334" y="10" width="20" height="20" rx="10" fill="#17C82A" shape-rendering="crispEdges"/>
<g clip-path="url(#clip0_286_69338)">
<path d="M16.2513 21.75C15.703 21.75 15.1955 21.9425 14.793 22.2633C14.5192 22.4809 14.2982 22.7577 14.1467 23.0729C13.9951 23.3881 13.9169 23.7336 13.918 24.0833C13.918 25.3725 14.9621 26.4167 16.2513 26.4167C16.8185 26.4159 17.3659 26.2085 17.7913 25.8333C18.2755 25.4075 18.5846 24.7833 18.5846 24.0833C18.5846 22.7942 17.5405 21.75 16.2513 21.75ZM16.8346 24.2292C16.8346 24.3808 16.753 24.5267 16.6246 24.6025L15.8955 25.04C15.8255 25.0808 15.7496 25.1042 15.668 25.1042C15.5221 25.1042 15.3763 25.0283 15.2946 24.8942C15.1721 24.6842 15.2363 24.4158 15.4463 24.2933L15.9655 23.9842V23.3542C15.9655 23.115 16.1638 22.9167 16.403 22.9167C16.6421 22.9167 16.8405 23.115 16.8405 23.3542V24.2292H16.8346Z" fill="#FEFEFE"/>
<path opacity="0.4" d="M24.698 20.5541H25.8763V19.7141C25.8763 18.5066 24.8905 17.5208 23.683 17.5208H16.9863C15.7788 17.5208 14.793 18.5066 14.793 19.7141V22.2633C15.136 21.9884 15.5497 21.816 15.9864 21.766C16.4231 21.7159 16.8651 21.7903 17.2613 21.9805C17.6576 22.1707 17.9921 22.4691 18.2262 22.8411C18.4603 23.2131 18.5846 23.6437 18.5846 24.0833C18.5846 24.5208 18.4621 24.935 18.2463 25.285C18.1238 25.495 17.9663 25.6816 17.7855 25.8333H23.683C24.8905 25.8333 25.8763 24.8475 25.8763 23.64V22.9458H24.768C24.138 22.9458 23.5605 22.485 23.508 21.855C23.473 21.4875 23.613 21.1433 23.858 20.9041C24.0738 20.6825 24.3713 20.5541 24.698 20.5541Z" fill="#FEFEFE"/>
<path d="M21.9971 15.3053V17.522H16.9863C15.7788 17.522 14.793 18.5078 14.793 19.7153V17.5745C14.793 16.8803 15.2188 16.262 15.8663 16.017L20.498 14.267C21.2213 13.9987 21.9971 14.5295 21.9971 15.3053ZM26.4941 21.1492V22.3508C26.4941 22.6717 26.2374 22.9342 25.9107 22.9458H24.7674C24.1374 22.9458 23.5599 22.485 23.5074 21.855C23.4724 21.4875 23.6124 21.1433 23.8574 20.9042C24.0732 20.6825 24.3707 20.5542 24.6974 20.5542H25.9107C26.2374 20.5658 26.4941 20.8283 26.4941 21.1492ZM21.5013 20.4375H17.418C17.1788 20.4375 16.9805 20.2392 16.9805 20C16.9805 19.7608 17.1788 19.5625 17.418 19.5625H21.5013C21.7405 19.5625 21.9388 19.7608 21.9388 20C21.9388 20.2392 21.7405 20.4375 21.5013 20.4375Z" fill="#FEFEFE"/>
</g>
</g>
<defs>
<filter id="filter0_d_286_69338" x="2.33398" y="6" width="36" height="36" filterUnits="userSpaceOnUse" color-interpolation-filters="sRGB">
<feFlood flood-opacity="0" result="BackgroundImageFix"/>
<feColorMatrix in="SourceAlpha" type="matrix" values="0 0 0 0 0 0 0 0 0 0 0 0 0 0 0 0 0 0 127 0" result="hardAlpha"/>
<feOffset dy="4"/>
<feGaussianBlur stdDeviation="4"/>
<feComposite in2="hardAlpha" operator="out"/>
<feColorMatrix type="matrix" values="0 0 0 0 0.341176 0 0 0 0 0.435294 0 0 0 0 0.521569 0 0 0 0.07 0"/>
<feBlend mode="normal" in2="BackgroundImageFix" result="effect1_dropShadow_286_69338"/>
<feBlend mode="normal" in="SourceGraphic" in2="effect1_dropShadow_286_69338" result="shape"/>
</filter>
<clipPath id="clip0_286_69338">
<rect width="14" height="14" fill="white" transform="translate(13.334 13)"/>
</clipPath>
</defs>
</svg>
