<svg width="19" height="18" viewBox="0 0 19 18" fill="none" xmlns="http://www.w3.org/2000/svg">
<path d="M7.80981 11.1172L7.04685 10.3542L7.78018 9.62086C7.99499 9.40605 7.99499 9.05049 7.78018 8.83568C7.67563 8.73236 7.53457 8.67442 7.38759 8.67442C7.2406 8.67442 7.09954 8.73236 6.99499 8.83568L6.26166 9.56901L5.55055 8.8579C5.446 8.75458 5.30494 8.69664 5.15796 8.69664C5.01097 8.69664 4.86991 8.75458 4.76536 8.8579C4.55055 9.07272 4.55055 9.42827 4.76536 9.64309L5.47648 10.3542L4.74314 11.0875C4.52833 11.3023 4.52833 11.6579 4.74314 11.8727C4.85425 11.9838 4.99499 12.0357 5.13574 12.0357C5.27648 12.0357 5.41722 11.9838 5.52833 11.8727L6.26166 11.1394L7.02462 11.9023C7.13574 12.0135 7.27648 12.0653 7.41722 12.0653C7.55796 12.0653 7.6987 12.0135 7.80981 11.9023C8.02462 11.6875 8.02462 11.332 7.80981 11.1172ZM10.3357 11.1112C9.92833 11.1112 9.58759 10.7779 9.58759 10.3705C9.58759 9.96309 9.91351 9.62975 10.3209 9.62975H10.3357C10.7431 9.62975 11.0765 9.96309 11.0765 10.3705C11.0765 10.7779 10.7506 11.1112 10.3357 11.1112ZM13.2543 11.1112C12.8468 11.1112 12.5061 10.7779 12.5061 10.3705C12.5061 9.96309 12.832 9.62975 13.2394 9.62975H13.2543C13.6617 9.62975 13.995 9.96309 13.995 10.3705C13.995 10.7779 13.6691 11.1112 13.2543 11.1112ZM11.7876 12.5705C11.3802 12.5705 11.0468 12.2446 11.0468 11.8372V11.8223C11.0468 11.4149 11.3802 11.0816 11.7876 11.0816C12.195 11.0816 12.5283 11.4149 12.5283 11.8223C12.5283 12.2298 12.2024 12.5705 11.7876 12.5705ZM11.7876 9.65197C11.3802 9.65197 11.0468 9.32605 11.0468 8.91864V8.90383C11.0468 8.49642 11.3802 8.16309 11.7876 8.16309C12.195 8.16309 12.5283 8.49642 12.5283 8.90383C12.5283 9.31123 12.2024 9.65197 11.7876 9.65197Z" fill="#17C82A"/>
<path opacity="0.4" d="M16.6019 8.19929V12.3326C16.6019 14.5178 14.8241 16.2956 12.639 16.2956H5.75007C3.56489 16.2956 1.78711 14.5178 1.78711 12.3326V8.19929C1.78711 6.01411 3.56489 4.23633 5.75007 4.23633H12.639C14.8241 4.23633 16.6019 6.01411 16.6019 8.19929Z" fill="#17C82A"/>
<path d="M10.4091 2.00737L10.4017 2.70367C10.3959 3.02071 10.2664 3.32292 10.0408 3.54576C9.81519 3.76859 9.5114 3.89438 9.19431 3.89626C9.0832 3.89626 9.01653 3.97033 9.01653 4.06663C9.01653 4.16293 9.0906 4.237 9.1869 4.237H7.99431C7.9869 4.18515 7.97949 4.12589 7.97949 4.06663C7.97949 3.39996 8.52023 2.85922 9.17949 2.85922C9.2906 2.85922 9.36468 2.78515 9.36468 2.68885L9.37208 1.99256C9.37949 1.71107 9.60912 1.48145 9.8906 1.48145H9.89801C10.1869 1.48145 10.4091 1.71848 10.4091 2.00737Z" fill="#17C82A"/>
</svg>
