<svg width="356" height="170" viewBox="0 0 356 170" fill="none" xmlns="http://www.w3.org/2000/svg">
<g opacity="0.4">
<g clip-path="url(#clip0_488_21922)">
<path d="M430.674 230.574C438.856 180.1 429.973 81.5618 328.984 91.1977C202.747 103.243 167.681 -5.16178 41.4444 61.9454C-84.7924 129.053 -179.47 -12.0447 -98.8187 -117.007" stroke="white" stroke-width="0.5" stroke-linecap="round" stroke-linejoin="round"/>
<path d="M423.661 250.749C431.843 200.275 422.959 101.736 321.97 111.372C195.733 123.417 160.667 15.0125 34.4307 82.1198C-91.8061 149.227 -186.484 8.12957 -105.832 -96.833" stroke="white" stroke-width="0.5" stroke-linecap="round" stroke-linejoin="round"/>
<path d="M416.648 270.922C424.83 220.449 415.947 121.91 314.957 131.546C188.72 143.591 153.655 35.1864 27.418 102.294C-98.8188 169.401 -193.496 28.3034 -112.845 -76.6592" stroke="white" stroke-width="0.5" stroke-linecap="round" stroke-linejoin="round"/>
<path d="M409.635 291.097C417.817 240.623 408.934 142.084 307.945 151.72C181.708 163.765 146.642 55.3607 20.4053 122.468C-105.831 189.575 -200.509 48.4777 -119.858 -56.4849" stroke="white" stroke-width="0.5" stroke-linecap="round" stroke-linejoin="round"/>
<path d="M402.622 311.271C410.804 260.797 401.92 162.259 300.931 171.894C174.694 183.939 139.628 75.535 13.3916 142.642C-112.845 209.749 -207.523 68.652 -126.871 -36.3105" stroke="white" stroke-width="0.5" stroke-linecap="round" stroke-linejoin="round"/>
<path d="M395.609 331.445C403.791 280.971 394.908 182.432 293.918 192.068C167.681 204.113 132.616 95.7088 6.37891 162.816C-119.858 229.923 -214.535 88.8259 -133.884 -16.1367" stroke="white" stroke-width="0.5" stroke-linecap="round" stroke-linejoin="round"/>
<path d="M388.595 351.619C396.777 301.145 387.894 202.607 286.904 212.243C160.668 224.288 125.602 115.883 -0.634767 182.99C-126.872 250.098 -221.549 109 -140.898 4.0376" stroke="white" stroke-width="0.5" stroke-linecap="round" stroke-linejoin="round"/>
<path d="M381.582 371.793C389.765 321.32 380.881 222.781 279.892 232.417C153.655 244.462 118.589 136.057 -7.64744 203.165C-133.884 270.272 -228.562 129.174 -147.911 24.2119" stroke="white" stroke-width="0.5" stroke-linecap="round" stroke-linejoin="round"/>
<path d="M374.569 391.968C382.751 341.494 373.868 242.955 272.878 252.591C146.641 264.636 111.576 156.232 -14.6611 223.339C-140.898 290.446 -235.576 149.349 -154.924 44.3862" stroke="white" stroke-width="0.5" stroke-linecap="round" stroke-linejoin="round"/>
<path d="M367.556 412.142C375.738 361.668 366.855 263.129 265.865 272.765C139.629 284.81 104.563 176.406 -21.6738 243.513C-147.911 310.62 -242.588 169.523 -161.937 64.5601" stroke="white" stroke-width="0.5" stroke-linecap="round" stroke-linejoin="round"/>
<path d="M360.542 432.316C368.724 381.842 359.841 283.304 258.852 292.939C132.615 304.984 97.5493 196.58 -28.6875 263.687C-154.924 330.794 -249.602 189.697 -168.951 84.7344" stroke="white" stroke-width="0.5" stroke-linecap="round" stroke-linejoin="round"/>
<path d="M353.53 452.49C361.712 402.016 352.828 303.477 251.839 313.113C125.602 325.158 90.5366 216.754 -35.7002 283.861C-161.937 350.968 -256.615 209.871 -175.963 104.908" stroke="white" stroke-width="0.5" stroke-linecap="round" stroke-linejoin="round"/>
<path d="M346.516 472.664C354.698 422.19 345.815 323.652 244.825 333.288C118.589 345.332 83.5229 236.928 -42.7139 304.035C-168.951 371.143 -263.628 230.045 -182.977 125.083" stroke="white" stroke-width="0.5" stroke-linecap="round" stroke-linejoin="round"/>
<path d="M339.503 492.838C347.685 442.365 338.802 343.826 237.813 353.462C111.576 365.507 76.5102 257.102 -49.7266 324.21C-175.963 391.317 -270.641 250.219 -189.99 145.257" stroke="white" stroke-width="0.5" stroke-linecap="round" stroke-linejoin="round"/>
<path d="M332.49 513.012C340.672 462.538 331.788 364 230.799 373.636C104.562 385.681 69.4965 277.276 -56.7402 344.383C-182.977 411.491 -277.655 270.393 -197.003 165.431" stroke="white" stroke-width="0.5" stroke-linecap="round" stroke-linejoin="round"/>
</g>
</g>
<defs>
<clipPath id="clip0_488_21922">
<rect width="439" height="170" fill="white" transform="matrix(-1 0 0 1 433 0)"/>
</clipPath>
</defs>
</svg>
