<svg width="227" height="100" viewBox="0 0 227 100" fill="none" xmlns="http://www.w3.org/2000/svg">
<path opacity="0.12" fill-rule="evenodd" clip-rule="evenodd" d="M246 86.3508V81.1736C245.632 81.4942 245.262 81.8135 244.891 82.1314C239.978 84.0658 235.017 85.7647 230.022 87.2782C235.793 81.3719 241.121 75.1729 246 68.7257V66.5516C240.411 74.0775 234.213 81.271 227.416 88.0614C222.413 89.501 217.38 90.7246 212.325 91.7509C227.337 73.6399 238.596 53.3628 246 31.9943V27.1888C238.53 50.5391 226.474 72.6796 209.965 92.2137C204.737 93.2082 199.493 93.9911 194.239 94.553C213.981 66.0119 225.223 33.3043 227.786 0H226.044C223.45 33.4278 212.036 66.2436 191.981 94.7724C186.453 95.2987 180.922 95.5971 175.399 95.654C192.107 66.0042 200.36 32.9722 200.14 0H198.192C198.422 32.9973 190.081 66.0562 173.183 95.6569C167.334 95.6512 161.501 95.3871 155.697 94.865C168.996 64.6885 174.117 32.012 171.203 0H169.023C171.968 31.9472 166.819 64.5703 153.429 94.6524C147.198 94.0195 141.01 93.0942 134.881 91.8776C144.452 61.9046 146.408 30.3712 141.018 0H138.368C143.802 30.2009 141.871 61.5806 132.302 91.3881C125.588 89.9627 118.962 88.1676 112.437 86.0548C118.016 57.2912 116.897 27.9049 109.416 0H106.262C113.774 27.5618 114.968 56.6132 109.521 85.0607C102.054 82.5137 94.7269 79.5611 87.6092 76.1308C89.0469 50.1038 85.1826 24.2963 76.3082 0H72.596C81.4364 23.7249 85.3971 48.9418 84.2004 74.3976C75.2561 69.8696 66.6431 64.6529 58.4513 58.7549C55.9896 38.3144 50.3315 18.6212 41.5548 0H37.218C45.708 17.5999 51.3266 36.1935 54.0384 55.4837C34.8223 40.7976 18.0981 22.3292 5.20445 0.340604C5.1379 0.22711 5.07148 0.113575 5.0052 0H0C0.470753 0.830246 0.948343 1.65848 1.43279 2.48464C49.2657 84.0579 148.303 118.768 235.725 90.0427C238.131 88.4941 240.92 87.4739 243.922 87.1491C244.616 86.8871 245.308 86.621 246 86.3508Z" fill="white"/>
</svg>
