<svg width="41" height="42" viewBox="0 0 41 42" fill="none" xmlns="http://www.w3.org/2000/svg">
<circle cx="20.666" cy="20" r="20" fill="#E3FDE4"/>
<circle cx="20.666" cy="20" r="15" fill="#7DEE89"/>
<g filter="url(#filter0_d_941_3391)">
<rect x="10.666" y="10" width="20" height="20" rx="10" fill="#17C82A" shape-rendering="crispEdges"/>
<path opacity="0.4" d="M24.37 24.48C24.2153 24.8798 23.9429 25.2233 23.5887 25.465C23.2346 25.7066 22.8154 25.8351 22.3867 25.8333H18.945C18.5161 25.8359 18.0966 25.7077 17.7423 25.466C17.388 25.2242 17.1157 24.8803 16.9617 24.48C16.6409 23.6517 16.8625 22.7358 17.5159 22.1408L19.8784 20H21.4592L23.8159 22.1408C24.1342 22.4288 24.3575 22.8066 24.4565 23.2243C24.5554 23.642 24.5253 24.0798 24.37 24.48Z" fill="#FEFEFE"/>
<path d="M21.7283 23.5822H19.605C19.4998 23.5822 19.3989 23.5404 19.3245 23.466C19.2501 23.3917 19.2083 23.2908 19.2083 23.1856C19.2083 23.0804 19.2501 22.9795 19.3245 22.9051C19.3989 22.8307 19.4998 22.7889 19.605 22.7889H21.7283C21.95 22.7889 22.125 22.9697 22.125 23.1856C22.125 23.4014 21.9442 23.5822 21.7283 23.5822ZM24.3708 15.52C24.2161 15.1201 23.9437 14.7767 23.5895 14.535C23.2354 14.2934 22.8162 14.1649 22.3875 14.1666H18.9458C18.5167 14.165 18.0972 14.2938 17.743 14.5359C17.3887 14.7781 17.1164 15.1221 16.962 15.5225C16.8077 15.9229 16.7786 16.3608 16.8787 16.778C16.9788 17.1953 17.2033 17.5723 17.5225 17.8591L19.8792 20H21.46L23.8167 17.8591C24.1349 17.5711 24.3583 17.1933 24.4573 16.7757C24.5562 16.358 24.5261 15.9201 24.3708 15.52ZM21.7283 17.2175H19.605C19.4998 17.2175 19.3989 17.1757 19.3245 17.1013C19.2501 17.0269 19.2083 16.926 19.2083 16.8208C19.2083 16.605 19.3892 16.4241 19.605 16.4241H21.7283C21.95 16.4241 22.125 16.605 22.125 16.8208C22.125 17.0366 21.9442 17.2175 21.7283 17.2175Z" fill="#FEFEFE"/>
</g>
<defs>
<filter id="filter0_d_941_3391" x="2.66602" y="6" width="36" height="36" filterUnits="userSpaceOnUse" color-interpolation-filters="sRGB">
<feFlood flood-opacity="0" result="BackgroundImageFix"/>
<feColorMatrix in="SourceAlpha" type="matrix" values="0 0 0 0 0 0 0 0 0 0 0 0 0 0 0 0 0 0 127 0" result="hardAlpha"/>
<feOffset dy="4"/>
<feGaussianBlur stdDeviation="4"/>
<feComposite in2="hardAlpha" operator="out"/>
<feColorMatrix type="matrix" values="0 0 0 0 0.341176 0 0 0 0 0.435294 0 0 0 0 0.521569 0 0 0 0.07 0"/>
<feBlend mode="normal" in2="BackgroundImageFix" result="effect1_dropShadow_941_3391"/>
<feBlend mode="normal" in="SourceGraphic" in2="effect1_dropShadow_941_3391" result="shape"/>
</filter>
</defs>
</svg>
