<svg width="40" height="42" viewBox="0 0 40 42" fill="none" xmlns="http://www.w3.org/2000/svg">
<circle cx="20" cy="20" r="20" fill="#E3FDE4"/>
<circle cx="20" cy="20" r="15" fill="#7DEE89"/>
<g filter="url(#filter0_d_286_69329)">
<rect x="10" y="10" width="20" height="20" rx="10" fill="#17C82A" shape-rendering="crispEdges"/>
<path d="M22.4785 26.125C22.7493 26.125 23.0089 26.0174 23.2004 25.826C23.3918 25.6345 23.4993 25.3749 23.4993 25.1041C23.4993 24.8334 23.3918 24.5738 23.2004 24.3823C23.0089 24.1909 22.7493 24.0833 22.4785 24.0833C22.2078 24.0833 21.9481 24.1909 21.7567 24.3823C21.5652 24.5738 21.4577 24.8334 21.4577 25.1041C21.4577 25.3749 21.5652 25.6345 21.7567 25.826C21.9481 26.0174 22.2078 26.125 22.4785 26.125ZM17.8118 26.125C18.0826 26.125 18.3422 26.0174 18.5337 25.826C18.7251 25.6345 18.8327 25.3749 18.8327 25.1041C18.8327 24.8334 18.7251 24.5738 18.5337 24.3823C18.3422 24.1909 18.0826 24.0833 17.8118 24.0833C17.5411 24.0833 17.2815 24.1909 17.09 24.3823C16.8986 24.5738 16.791 24.8334 16.791 25.1041C16.791 25.3749 16.8986 25.6345 17.09 25.826C17.2815 26.0174 17.5411 26.125 17.8118 26.125Z" fill="#FEFEFE"/>
<path opacity="0.4" d="M15.8227 15.2984L15.706 16.7275C15.6827 17.0017 15.8985 17.2292 16.1727 17.2292H25.1035C25.3485 17.2292 25.5527 17.0425 25.5702 16.7975C25.646 15.765 24.8585 14.925 23.826 14.925H16.6685C16.6102 14.6684 16.4935 14.4234 16.3127 14.2192C16.1704 14.0655 15.9981 13.9428 15.8065 13.8585C15.6148 13.7742 15.4079 13.7302 15.1985 13.7292H14.166C13.9268 13.7292 13.7285 13.9275 13.7285 14.1667C13.7285 14.4059 13.9268 14.6042 14.166 14.6042H15.181C15.3618 14.6042 15.531 14.68 15.6535 14.8084C15.776 14.9425 15.8343 15.1175 15.8227 15.2984Z" fill="#FEFEFE"/>
<path d="M24.9648 18.1042H16.0165C15.7715 18.1042 15.5732 18.2908 15.5498 18.53L15.3398 21.0675C15.2582 22.0592 16.0398 22.9167 17.0373 22.9167H23.524C24.399 22.9167 25.169 22.1992 25.2332 21.3242L25.4257 18.6C25.4312 18.5365 25.4234 18.4724 25.4027 18.4121C25.382 18.3518 25.3488 18.2965 25.3054 18.2497C25.262 18.203 25.2092 18.1659 25.1506 18.1408C25.0919 18.1158 25.0286 18.1033 24.9648 18.1042Z" fill="#FEFEFE"/>
</g>
<defs>
<filter id="filter0_d_286_69329" x="2" y="6" width="36" height="36" filterUnits="userSpaceOnUse" color-interpolation-filters="sRGB">
<feFlood flood-opacity="0" result="BackgroundImageFix"/>
<feColorMatrix in="SourceAlpha" type="matrix" values="0 0 0 0 0 0 0 0 0 0 0 0 0 0 0 0 0 0 127 0" result="hardAlpha"/>
<feOffset dy="4"/>
<feGaussianBlur stdDeviation="4"/>
<feComposite in2="hardAlpha" operator="out"/>
<feColorMatrix type="matrix" values="0 0 0 0 0.341176 0 0 0 0 0.435294 0 0 0 0 0.521569 0 0 0 0.07 0"/>
<feBlend mode="normal" in2="BackgroundImageFix" result="effect1_dropShadow_286_69329"/>
<feBlend mode="normal" in="SourceGraphic" in2="effect1_dropShadow_286_69329" result="shape"/>
</filter>
</defs>
</svg>
