<svg width="20" height="21" viewBox="0 0 20 21" fill="none" xmlns="http://www.w3.org/2000/svg">
<path d="M13.9582 3.46675V2.16675C13.9582 1.82508 13.6749 1.54175 13.3332 1.54175C12.9915 1.54175 12.7082 1.82508 12.7082 2.16675V3.41675H7.29153V2.16675C7.29153 1.82508 7.0082 1.54175 6.66653 1.54175C6.32487 1.54175 6.04153 1.82508 6.04153 2.16675V3.46675C3.79153 3.67508 2.69987 5.01675 2.5332 7.00841C2.51653 7.25008 2.71653 7.45008 2.94987 7.45008H17.0499C17.2915 7.45008 17.4915 7.24175 17.4665 7.00841C17.2999 5.01675 16.2082 3.67508 13.9582 3.46675Z" fill="#1AC727"/>
<path opacity="0.4" d="M16.6667 8.69995C17.125 8.69995 17.5 9.07495 17.5 9.53328V14.6666C17.5 17.1666 16.25 18.8333 13.3333 18.8333H6.66667C3.75 18.8333 2.5 17.1666 2.5 14.6666V9.53328C2.5 9.07495 2.875 8.69995 3.33333 8.69995H16.6667Z" fill="#1AC727"/>
<path d="M7.08333 12.9991C6.86667 12.9991 6.65 12.9074 6.49167 12.7574C6.34167 12.5991 6.25 12.3824 6.25 12.1658C6.25 11.9491 6.34167 11.7324 6.49167 11.5741C6.725 11.3408 7.09167 11.2658 7.4 11.3991C7.50833 11.4408 7.6 11.4991 7.675 11.5741C7.825 11.7324 7.91667 11.9491 7.91667 12.1658C7.91667 12.3824 7.825 12.5991 7.675 12.7574C7.51667 12.9074 7.3 12.9991 7.08333 12.9991ZM10 12.9991C9.78333 12.9991 9.56667 12.9074 9.40833 12.7574C9.25833 12.5991 9.16667 12.3824 9.16667 12.1658C9.16667 11.9491 9.25833 11.7324 9.40833 11.5741C9.48333 11.4991 9.575 11.4408 9.68333 11.3991C9.99167 11.2658 10.3583 11.3408 10.5917 11.5741C10.7417 11.7324 10.8333 11.9491 10.8333 12.1658C10.8333 12.3824 10.7417 12.5991 10.5917 12.7574L10.4667 12.8574C10.4167 12.8908 10.3667 12.9158 10.3167 12.9324C10.2667 12.9574 10.2167 12.9741 10.1667 12.9824C10.1083 12.9908 10.0583 12.9991 10 12.9991ZM12.9167 12.9999C12.7 12.9999 12.4833 12.9083 12.325 12.7583C12.175 12.5999 12.0833 12.3833 12.0833 12.1666C12.0833 11.9499 12.175 11.7333 12.325 11.5749C12.4083 11.4999 12.4917 11.4416 12.6 11.3999C12.75 11.3333 12.9167 11.3166 13.0833 11.3499C13.1333 11.3583 13.1833 11.3749 13.2333 11.3999C13.2833 11.4166 13.3333 11.4416 13.3833 11.4749L13.5083 11.5749C13.6583 11.7333 13.75 11.9499 13.75 12.1666C13.75 12.3833 13.6583 12.5999 13.5083 12.7583L13.3833 12.8583C13.3333 12.8916 13.2833 12.9166 13.2333 12.9333C13.1833 12.9583 13.1333 12.9749 13.0833 12.9833C13.025 12.9916 12.9667 12.9999 12.9167 12.9999ZM7.08333 15.9166C6.975 15.9166 6.86667 15.8916 6.76667 15.8499C6.65833 15.8083 6.575 15.7499 6.49167 15.6749C6.34167 15.5166 6.25 15.2999 6.25 15.0833C6.25 14.8666 6.34167 14.6499 6.49167 14.4916C6.575 14.4166 6.65833 14.3583 6.76667 14.3166C6.91667 14.2499 7.08333 14.2333 7.25 14.2666C7.3 14.2749 7.35 14.2916 7.4 14.3166C7.45 14.3333 7.5 14.3583 7.55 14.3916L7.675 14.4916C7.825 14.6499 7.91667 14.8666 7.91667 15.0833C7.91667 15.2999 7.825 15.5166 7.675 15.6749C7.63333 15.7083 7.59167 15.7499 7.55 15.7749C7.5 15.8083 7.45 15.8333 7.4 15.8499C7.35 15.8749 7.3 15.8916 7.25 15.8999C7.19167 15.9083 7.14167 15.9166 7.08333 15.9166ZM10 15.9166C9.78333 15.9166 9.56667 15.8249 9.40833 15.6749C9.25833 15.5166 9.16667 15.2999 9.16667 15.0833C9.16667 14.8666 9.25833 14.6499 9.40833 14.4916C9.71667 14.1833 10.2833 14.1833 10.5917 14.4916C10.7417 14.6499 10.8333 14.8666 10.8333 15.0833C10.8333 15.2999 10.7417 15.5166 10.5917 15.6749C10.4333 15.8249 10.2167 15.9166 10 15.9166ZM12.9167 15.9166C12.7 15.9166 12.4833 15.8249 12.325 15.6749C12.175 15.5166 12.0833 15.2999 12.0833 15.0833C12.0833 14.8666 12.175 14.6499 12.325 14.4916C12.6333 14.1833 13.2 14.1833 13.5083 14.4916C13.6583 14.6499 13.75 14.8666 13.75 15.0833C13.75 15.2999 13.6583 15.5166 13.5083 15.6749C13.35 15.8249 13.1333 15.9166 12.9167 15.9166Z" fill="#1AC727"/>
</svg>
