<svg width="160" height="160" viewBox="0 0 160 160" fill="none" xmlns="http://www.w3.org/2000/svg">
<mask id="mask0_964_3306" style="mask-type:alpha" maskUnits="userSpaceOnUse" x="0" y="0" width="160" height="160">
<path d="M80 160C124.183 160 160 124.183 160 80C160 35.8172 124.183 0 80 0C35.8172 0 0 35.8172 0 80C0 124.183 35.8172 160 80 160Z" fill="#D9E8FF"/>
</mask>
<g mask="url(#mask0_964_3306)">
<path d="M80 160C124.183 160 160 124.183 160 80C160 35.8172 124.183 0 80 0C35.8172 0 0 35.8172 0 80C0 124.183 35.8172 160 80 160Z" fill="#9AFF9E"/>
<path d="M154.871 95.728C128.954 96.9185 109.517 111.107 103.038 118.053C93.9675 118.053 72.4571 116.713 58.9805 111.355C42.1348 104.658 11.683 100.937 1.96432 86.7986C-5.81061 75.4876 -22.4403 74.1482 -29.7833 74.8923V118.053L95.9114 131.447L213.831 118.053V59.2651C191.154 60.7534 187.267 94.2398 154.871 95.728Z" fill="#E3FDE4"/>
<rect x="0.480469" y="118.468" width="213.126" height="77.1406" fill="#38E54B"/>
<path d="M80.7687 58.1604C92.1348 58.1604 101.349 48.9463 101.349 37.5802C101.349 26.2141 92.1348 17 80.7687 17C69.4025 17 60.1885 26.2141 60.1885 37.5802C60.1885 48.9463 69.4025 58.1604 80.7687 58.1604Z" fill="#44E355"/>
<path d="M126.045 34H33.2631C27.595 34 23 38.5949 23 44.2631V149.393C23 155.061 27.595 159.656 33.2631 159.656H126.045C131.713 159.656 136.308 155.061 136.308 149.393V44.2631C136.308 38.5949 131.713 34 126.045 34Z" fill="url(#paint0_linear_964_3306)"/>
<path d="M80.7682 36.7994C83.8952 36.7994 86.43 34.2324 86.43 31.0657C86.43 27.8991 83.8952 25.332 80.7682 25.332C77.6413 25.332 75.1064 27.8991 75.1064 31.0657C75.1064 34.2324 77.6413 36.7994 80.7682 36.7994Z" fill="white"/>
<path d="M85.6215 37.7859C85.3271 37.6445 85.0034 37.5748 84.6769 37.5826C84.3505 37.5904 84.0305 37.6755 83.7432 37.8308C82.8212 38.3032 81.8 38.5496 80.764 38.5496C79.728 38.5496 78.7069 38.3032 77.7848 37.8308C77.4976 37.6755 77.1776 37.5904 76.8511 37.5826C76.5246 37.5748 76.2009 37.6445 75.9066 37.7859C74.4293 38.5188 73.1313 39.5678 72.1047 40.8584C71.0781 42.1491 70.348 43.6497 69.9662 45.2541C69.8904 45.5626 69.8853 45.8843 69.9511 46.1952C70.017 46.506 70.1521 46.798 70.3465 47.0494C70.5408 47.3007 70.7894 47.505 71.0736 47.647C71.3579 47.7889 71.6705 47.8649 71.9882 47.8693H89.5847C89.903 47.8666 90.2166 47.7917 90.5017 47.6503C90.7869 47.5089 91.0362 47.3046 91.2309 47.0527C91.4256 46.8009 91.5606 46.5082 91.6257 46.1966C91.6908 45.8851 91.6844 45.5628 91.6068 45.2541C91.2218 43.6448 90.4855 42.1407 89.4507 40.8495C88.4159 39.5583 87.1083 38.5121 85.6215 37.7859Z" fill="white"/>
<path d="M49.7275 71.3192L110.965 71.2383" stroke="white" stroke-width="4" stroke-linecap="round" stroke-linejoin="round"/>
<path d="M55.1465 85.3012L103.263 85.2383" stroke="white" stroke-width="4" stroke-linecap="round" stroke-linejoin="round"/>
<path d="M49.7275 103.319L110.965 103.238" stroke="white" stroke-width="4" stroke-linecap="round" stroke-linejoin="round"/>
<path d="M55.1465 117.301L103.263 117.238" stroke="white" stroke-width="4" stroke-linecap="round" stroke-linejoin="round"/>
<path d="M159.871 128.636C159.66 128.438 159.412 128.282 159.141 128.18C158.87 128.077 158.581 128.029 158.292 128.038C158.002 128.047 157.717 128.114 157.453 128.233C157.189 128.353 156.951 128.524 156.753 128.735L142.607 143.86L137.359 137.569C136.971 137.16 136.442 136.914 135.879 136.881C135.316 136.849 134.762 137.033 134.33 137.396C133.899 137.759 133.622 138.273 133.557 138.833C133.492 139.393 133.643 139.957 133.98 140.409L140.522 148.21C140.633 148.435 140.782 148.639 140.963 148.812C141.374 149.193 141.913 149.404 142.473 149.405H142.553C143.072 149.405 143.574 149.224 143.973 148.893C144.156 148.731 144.313 148.544 144.441 148.336L159.988 131.719C160.374 131.291 160.578 130.73 160.556 130.154C160.534 129.578 160.289 129.034 159.871 128.636Z" fill="white"/>
</g>
<defs>
<linearGradient id="paint0_linear_964_3306" x1="79.6539" y1="34" x2="79.9276" y2="199.914" gradientUnits="userSpaceOnUse">
<stop offset="0.440625" stop-color="#17C82A"/>
<stop offset="0.820833" stop-color="#58FF6A"/>
</linearGradient>
</defs>
</svg>
