<svg width="317" height="21" viewBox="0 0 317 21" fill="none" xmlns="http://www.w3.org/2000/svg">
<path d="M145.013 15.0015L148.217 6.06146H149.609L152.813 15.0015H151.553L150.821 12.9015H147.005L146.273 15.0015H145.013ZM147.377 11.8215H150.449L148.745 6.91346H149.081L147.377 11.8215ZM156.072 15.0735C155.44 15.0735 154.952 14.8935 154.608 14.5335C154.272 14.1735 154.104 13.6655 154.104 13.0095V9.60146H152.928V8.53346H153.168C153.456 8.53346 153.684 8.44546 153.852 8.26946C154.02 8.09346 154.104 7.86146 154.104 7.57346V7.04546H155.22V8.53346H156.672V9.60146H155.22V12.9735C155.22 13.1895 155.252 13.3775 155.316 13.5375C155.388 13.6975 155.504 13.8255 155.664 13.9215C155.824 14.0095 156.036 14.0535 156.3 14.0535C156.356 14.0535 156.424 14.0495 156.504 14.0415C156.592 14.0335 156.672 14.0255 156.744 14.0175V15.0015C156.64 15.0255 156.524 15.0415 156.396 15.0495C156.268 15.0655 156.16 15.0735 156.072 15.0735ZM160.016 15.1455C159.592 15.1455 159.216 15.0695 158.888 14.9175C158.568 14.7575 158.316 14.5415 158.132 14.2695C157.948 13.9895 157.856 13.6695 157.856 13.3095C157.856 12.9655 157.928 12.6575 158.072 12.3855C158.224 12.1055 158.456 11.8695 158.768 11.6775C159.088 11.4855 159.488 11.3495 159.968 11.2695L162.368 10.8735V11.8095L160.22 12.1695C159.804 12.2415 159.5 12.3735 159.308 12.5655C159.124 12.7575 159.032 12.9935 159.032 13.2735C159.032 13.5375 159.136 13.7575 159.344 13.9335C159.56 14.1095 159.828 14.1975 160.148 14.1975C160.556 14.1975 160.908 14.1135 161.204 13.9455C161.508 13.7695 161.744 13.5335 161.912 13.2375C162.088 12.9415 162.176 12.6135 162.176 12.2535V10.6095C162.176 10.2575 162.044 9.97346 161.78 9.75746C161.524 9.53346 161.184 9.42146 160.76 9.42146C160.392 9.42146 160.064 9.51746 159.776 9.70946C159.496 9.89346 159.288 10.1415 159.152 10.4535L158.18 9.94946C158.3 9.65346 158.492 9.38946 158.756 9.15746C159.02 8.91746 159.328 8.72946 159.68 8.59346C160.032 8.45746 160.4 8.38946 160.784 8.38946C161.28 8.38946 161.716 8.48546 162.092 8.67746C162.468 8.86146 162.76 9.12146 162.968 9.45746C163.184 9.78546 163.292 10.1695 163.292 10.6095V15.0015H162.2V13.7775L162.404 13.8495C162.268 14.1055 162.084 14.3295 161.852 14.5215C161.62 14.7135 161.348 14.8655 161.036 14.9775C160.724 15.0895 160.384 15.1455 160.016 15.1455ZM167.314 15.1455C166.85 15.1455 166.43 15.0375 166.054 14.8215C165.686 14.6055 165.398 14.3055 165.19 13.9215C164.99 13.5295 164.89 13.0815 164.89 12.5775V8.53346H166.006V12.4575C166.006 12.7775 166.07 13.0575 166.198 13.2975C166.334 13.5375 166.518 13.7255 166.75 13.8615C166.99 13.9975 167.262 14.0655 167.566 14.0655C167.87 14.0655 168.138 13.9975 168.37 13.8615C168.61 13.7255 168.794 13.5295 168.922 13.2735C169.058 13.0175 169.126 12.7135 169.126 12.3615V8.53346H170.254V15.0015H169.162V13.7415L169.342 13.8495C169.19 14.2575 168.93 14.5775 168.562 14.8095C168.202 15.0335 167.786 15.1455 167.314 15.1455Z" fill="#969AA8"/>
<path d="M1 10.0015H135" stroke="black" stroke-opacity="0.43" stroke-width="1.5" stroke-linecap="round"/>
<path d="M183 10.0015L316 10.0015" stroke="black" stroke-opacity="0.43" stroke-width="1.5" stroke-linecap="round"/>
</svg>
