<svg width="17" height="17" viewBox="0 0 17 17" fill="none" xmlns="http://www.w3.org/2000/svg">
<path d="M8.5 16C7.51509 16 6.53982 15.806 5.62987 15.4291C4.71993 15.0522 3.89314 14.4997 3.1967 13.8033C2.50026 13.1069 1.94781 12.2801 1.5709 11.3701C1.19399 10.4602 1 9.48491 1 8.5C1 7.51509 1.19399 6.53982 1.5709 5.62987C1.94781 4.71993 2.50026 3.89314 3.1967 3.1967C3.89314 2.50026 4.71993 1.94781 5.62988 1.5709C6.53982 1.19399 7.51509 1 8.5 1C9.48492 1 10.4602 1.19399 11.3701 1.5709C12.2801 1.94781 13.1069 2.50026 13.8033 3.1967C14.4997 3.89314 15.0522 4.71993 15.4291 5.62988C15.806 6.53982 16 7.51509 16 8.5C16 9.48492 15.806 10.4602 15.4291 11.3701C15.0522 12.2801 14.4997 13.1069 13.8033 13.8033C13.1069 14.4997 12.2801 15.0522 11.3701 15.4291C10.4602 15.806 9.48491 16 8.5 16L8.5 16Z" stroke="#EAEAEA" stroke-width="1.5"/>
<path d="M8.5 16C6.92411 16 5.38826 15.5036 4.11047 14.5813C2.83267 13.659 1.87787 12.3576 1.3816 10.8619C0.885329 9.36615 0.872804 7.75212 1.3458 6.24889C1.8188 4.74566 2.75329 3.42961 4.01662 2.48757C5.27994 1.54553 6.80791 1.02536 8.38361 1.0009C9.95931 0.976447 11.5027 1.44895 12.7946 2.35133C14.0866 3.25371 15.0615 4.54012 15.5809 6.02795C16.1003 7.51578 16.1379 9.12942 15.6883 10.6398" stroke="#EF4444" stroke-width="1.5" stroke-linecap="round"/>
<path d="M6.31251 9.4375C6.01876 9.4375 5.74688 9.54063 5.53126 9.7125C5.38457 9.82907 5.26619 9.97735 5.18501 10.1462C5.10382 10.3151 5.06194 10.5001 5.06251 10.6875C5.06251 11.3781 5.62188 11.9375 6.31251 11.9375C6.61635 11.9371 6.90962 11.826 7.13751 11.625C7.39688 11.3969 7.56251 11.0625 7.56251 10.6875C7.56251 9.99687 7.00313 9.4375 6.31251 9.4375ZM6.62501 10.7656C6.62501 10.8469 6.58126 10.925 6.51251 10.9656L6.12188 11.2C6.08438 11.2219 6.04376 11.2344 6.00001 11.2344C5.92188 11.2344 5.84376 11.1937 5.80001 11.1219C5.73438 11.0094 5.76876 10.8656 5.88126 10.8L6.15938 10.6344V10.2969C6.15938 10.1687 6.26563 10.0625 6.39376 10.0625C6.52188 10.0625 6.62813 10.1687 6.62813 10.2969V10.7656H6.62501Z" fill="#EF4444"/>
<path opacity="0.4" d="M10.8375 8.79688H11.4688V8.34688C11.4688 7.7 10.9406 7.17188 10.2937 7.17188H6.70625C6.05938 7.17188 5.53125 7.7 5.53125 8.34688V9.7125C5.715 9.56523 5.93662 9.47287 6.17057 9.44606C6.40453 9.41926 6.6413 9.45911 6.85359 9.56101C7.06589 9.66291 7.24507 9.82272 7.37049 10.022C7.49592 10.2213 7.56248 10.452 7.5625 10.6875C7.5625 10.9219 7.49688 11.1437 7.38125 11.3312C7.31563 11.4437 7.23125 11.5437 7.13438 11.625H10.2937C10.9406 11.625 11.4688 11.0969 11.4688 10.45V10.0781H10.875C10.5375 10.0781 10.2281 9.83125 10.2 9.49375C10.1813 9.29688 10.2563 9.1125 10.3875 8.98438C10.5031 8.86563 10.6625 8.79688 10.8375 8.79688Z" fill="#EF4444"/>
<path d="M9.39063 5.98462V7.17212H6.70625C6.05938 7.17212 5.53125 7.70024 5.53125 8.34712V7.20024C5.53125 6.82837 5.75938 6.49712 6.10625 6.36587L8.5875 5.42837C8.975 5.28462 9.39063 5.56899 9.39063 5.98462ZM11.7997 9.11524V9.75899C11.7997 9.93087 11.6622 10.0715 11.4872 10.0777H10.8747C10.5372 10.0777 10.2278 9.83087 10.1997 9.49337C10.1809 9.29649 10.2559 9.11212 10.3872 8.98399C10.5028 8.86524 10.6622 8.79649 10.8372 8.79649H11.4872C11.6622 8.80274 11.7997 8.94337 11.7997 9.11524ZM9.125 8.73399H6.9375C6.80938 8.73399 6.70313 8.62774 6.70313 8.49962C6.70313 8.37149 6.80938 8.26524 6.9375 8.26524H9.125C9.25313 8.26524 9.35938 8.37149 9.35938 8.49962C9.35938 8.62774 9.25313 8.73399 9.125 8.73399Z" fill="#EF4444"/>
</svg>
