<svg width="24" height="24" viewBox="0 0 24 24" fill="none" xmlns="http://www.w3.org/2000/svg">
<g id="Iconsax/Bulk/home3">
<path id="Vector" opacity="0.4" d="M10.0703 2.81997L3.14027 8.36997C2.36027 8.98997 1.86027 10.3 2.03027 11.28L3.36027 19.24C3.60027 20.66 4.96027 21.81 6.40027 21.81H17.6003C19.0303 21.81 20.4003 20.65 20.6403 19.24L21.9703 11.28C22.1303 10.3 21.6303 8.98997 20.8603 8.36997L13.9303 2.82997C12.8603 1.96997 11.1303 1.96997 10.0703 2.81997Z" fill="#7E8CA0"/>
<path id="Vector_2" d="M12 15.5C12.663 15.5 13.2989 15.2366 13.7678 14.7678C14.2366 14.2989 14.5 13.663 14.5 13C14.5 12.337 14.2366 11.7011 13.7678 11.2322C13.2989 10.7634 12.663 10.5 12 10.5C11.337 10.5 10.7011 10.7634 10.2322 11.2322C9.76339 11.7011 9.5 12.337 9.5 13C9.5 13.663 9.76339 14.2989 10.2322 14.7678C10.7011 15.2366 11.337 15.5 12 15.5Z" fill="#7E8CA0"/>
</g>
</svg>
