<svg width="24" height="24" viewBox="0 0 24 24" fill="none" xmlns="http://www.w3.org/2000/svg">
<path d="M2 8H22M2 8.8H22M5.07692 14.4H11.2308M5.07692 16.8H8.15385M4.30769 20H19.6923C20.3043 20 20.8913 19.7471 21.3241 19.2971C21.7569 18.847 22 18.2365 22 17.6V6.4C22 5.76348 21.7569 5.15303 21.3241 4.70294C20.8913 4.25286 20.3043 4 19.6923 4H4.30769C3.69565 4 3.10868 4.25286 2.67591 4.70294C2.24313 5.15303 2 5.76348 2 6.4V17.6C2 18.2365 2.24313 18.847 2.67591 19.2971C3.10868 19.7471 3.69565 20 4.30769 20Z" stroke="#2D3C52" stroke-width="1.5" stroke-linecap="round" stroke-linejoin="round"/>
</svg>
