<svg width="20" height="20" viewBox="0 0 20 20" fill="none" xmlns="http://www.w3.org/2000/svg">
<path opacity="0.4" d="M10.0003 18.3334C14.6028 18.3334 18.3337 14.6025 18.3337 10C18.3337 5.39752 14.6028 1.66669 10.0003 1.66669C5.39783 1.66669 1.66699 5.39752 1.66699 10C1.66699 14.6025 5.39783 18.3334 10.0003 18.3334Z" fill="#17C82A"/>
<path d="M8.81638 12.985C8.65067 12.9849 8.49181 12.9189 8.37471 12.8017L6.01638 10.4433C5.90015 10.3257 5.83496 10.167 5.83496 10.0017C5.83496 9.83631 5.90015 9.67762 6.01638 9.56C6.25805 9.31834 6.65805 9.31834 6.89971 9.56L8.81638 11.4767L13.0997 7.19333C13.3414 6.95167 13.7414 6.95167 13.983 7.19333C14.2247 7.435 14.2247 7.835 13.983 8.07667L9.25805 12.8017C9.14095 12.9189 8.98208 12.9849 8.81638 12.985Z" fill="#17C82A"/>
</svg>
