<svg width="15" height="15" viewBox="0 0 15 15" fill="none" xmlns="http://www.w3.org/2000/svg">
<path fill-rule="evenodd" clip-rule="evenodd" d="M7.5 1.25C4.05375 1.25 1.25 4.15625 1.25 7.72875V10.625C1.25 12.0037 2.37125 13.125 3.75 13.125C5.12875 13.125 6.25 12.0037 6.25 10.625C6.25 9.24625 5.12875 8.125 3.75 8.125C3.2925 8.125 2.86937 8.2575 2.5 8.47312V7.72875C2.5 4.84563 4.74313 2.5 7.5 2.5C10.2569 2.5 12.5 4.84563 12.5 7.72875V8.47312C12.1306 8.2575 11.7075 8.125 11.25 8.125C9.87125 8.125 8.75 9.24625 8.75 10.625C8.75 12.0037 9.87125 13.125 11.25 13.125C12.6287 13.125 13.75 12.0037 13.75 10.625V7.72875C13.75 4.15625 10.9462 1.25 7.5 1.25Z" fill="#231F20"/>
<mask id="mask0_402_8198" style="mask-type:luminance" maskUnits="userSpaceOnUse" x="1" y="1" width="13" height="13">
<path fill-rule="evenodd" clip-rule="evenodd" d="M7.5 1.25C4.05375 1.25 1.25 4.15625 1.25 7.72875V10.625C1.25 12.0037 2.37125 13.125 3.75 13.125C5.12875 13.125 6.25 12.0037 6.25 10.625C6.25 9.24625 5.12875 8.125 3.75 8.125C3.2925 8.125 2.86937 8.2575 2.5 8.47312V7.72875C2.5 4.84563 4.74313 2.5 7.5 2.5C10.2569 2.5 12.5 4.84563 12.5 7.72875V8.47312C12.1306 8.2575 11.7075 8.125 11.25 8.125C9.87125 8.125 8.75 9.24625 8.75 10.625C8.75 12.0037 9.87125 13.125 11.25 13.125C12.6287 13.125 13.75 12.0037 13.75 10.625V7.72875C13.75 4.15625 10.9462 1.25 7.5 1.25Z" fill="white"/>
</mask>
<g mask="url(#mask0_402_8198)">
<rect width="15" height="15" fill="#F9F9F9"/>
</g>
</svg>
