<svg width="17" height="22" viewBox="0 0 17 22" fill="none" xmlns="http://www.w3.org/2000/svg">
<path fill-rule="evenodd" clip-rule="evenodd" d="M8.47811 0C5.70782 0 3.44222 2.14808 3.39609 4.79126C3.39202 4.81855 3.39066 4.84584 3.39066 4.87313V5.7451C3.33317 5.74848 3.27194 5.7506 3.21036 5.75274L3.21032 5.75274C3.10626 5.75635 3.00125 5.75999 2.91176 5.76979C2.11541 5.85556 1.41402 6.04268 0.897136 6.53779C0.378895 7.03291 0.183537 7.70475 0.0926411 8.46885C0.0068702 9.2008 0.00699519 10.0794 0.00715762 11.2212L0.00717196 11.3732V15.3133C0.00174535 15.3536 -0.00096795 15.3939 -0.00096795 15.4342L-0.0009723 15.537C-0.00104656 16.7028 -0.00110346 17.5961 0.0872144 18.3386C0.176753 19.1027 0.372111 19.7732 0.890353 20.2683C1.40724 20.7647 2.10863 20.9506 2.90498 21.0363C3.67977 21.1196 4.61069 21.1196 5.82579 21.1195L5.93439 21.1195H5.94253H11.0218C11.0298 21.1195 11.0378 21.1192 11.0459 21.1189C11.0544 21.1185 11.063 21.1182 11.072 21.1182H11.1276H11.1276C12.3406 21.1182 13.2775 21.1182 14.0512 21.035C14.8476 20.9493 15.5476 20.7634 16.0659 20.267C16.5841 19.7719 16.7795 19.1014 16.869 18.3373C16.9572 17.5857 16.9572 16.6778 16.9572 15.4916V15.4916V15.4381V15.4329V11.3771V11.3758V11.3732L16.9572 11.2705C16.9573 10.1046 16.9573 9.2113 16.869 8.46885C16.7795 7.70475 16.5841 7.03291 16.0659 6.53779C15.5476 6.04268 14.8476 5.85556 14.0512 5.76979C13.963 5.76031 13.8602 5.75611 13.7582 5.75195L13.7582 5.75195L13.7581 5.75194C13.6923 5.74925 13.6267 5.74658 13.5656 5.7425V4.87313C13.5656 4.84324 13.5642 4.81206 13.5601 4.78217C13.5086 2.14288 11.2443 0 8.47811 0ZM8.4781 1.62427C10.3598 1.62427 11.8697 3.07191 11.8697 4.87302V5.69171C11.7425 5.69171 11.622 5.69079 11.4982 5.68984H11.4981L11.4979 5.68984C11.3669 5.68884 11.2321 5.68781 11.0815 5.68781L11.0779 5.68758C11.0589 5.68636 11.041 5.68521 11.0218 5.68521H5.94252C5.92741 5.68521 5.91231 5.68633 5.89612 5.68753H5.89612L5.89232 5.68781C5.73811 5.68781 5.60004 5.68884 5.46594 5.68984C5.33933 5.69079 5.21626 5.69171 5.08647 5.69171V4.87302C5.08647 3.07191 6.59643 1.62427 8.4781 1.62427ZM10.9623 7.30957H5.98471L5.98335 7.31087C5.97657 7.31087 5.96978 7.31119 5.963 7.31152C5.95622 7.31184 5.94943 7.31217 5.94265 7.31217C4.67418 7.31217 3.73402 7.31737 3.10182 7.38494C2.46962 7.45252 2.21593 7.57207 2.09519 7.68643C1.9758 7.80078 1.85099 8.04509 1.77909 8.65066C1.70854 9.25622 1.70311 10.1568 1.70311 11.3731V15.4341C1.70311 15.4717 1.70176 15.5094 1.69633 15.5484C1.69633 16.6985 1.70176 17.5717 1.77095 18.1552C1.84285 18.7621 1.96766 19.0051 2.08705 19.1207C2.20779 19.2351 2.46148 19.3534 3.09368 19.4222C3.72588 19.4898 4.66604 19.495 5.93451 19.495H5.94265H10.9785C10.986 19.4944 10.9931 19.494 11.0003 19.4937C11.0074 19.4934 11.0145 19.493 11.022 19.4924C12.2891 19.4924 13.2292 19.4898 13.8614 19.4222C14.4936 19.3534 14.7487 19.2338 14.8694 19.1181C14.9888 19.0038 15.1136 18.7595 15.1855 18.1539C15.2561 17.5496 15.2615 16.6504 15.2615 15.438V11.377V11.3744V11.3731C15.2615 10.1568 15.2561 9.25622 15.1855 8.65066C15.1136 8.04509 14.9888 7.80078 14.8694 7.68643C14.7487 7.57077 14.4936 7.45252 13.8614 7.38494C13.2292 7.31737 12.2891 7.31217 11.022 7.31217C11.0028 7.31217 10.9849 7.31102 10.9659 7.3098L10.9623 7.30957Z" fill="#B9BAC8"/>
<path fill-rule="evenodd" clip-rule="evenodd" d="M8.48076 10.5586C8.03035 10.5586 7.59893 10.7301 7.28012 11.0342C6.9613 11.3396 6.78223 11.7541 6.78223 12.1856C6.78223 12.4715 6.86091 12.7522 7.01014 12.9991C7.16073 13.246 7.37508 13.4513 7.63285 13.5942V15.4343C7.63149 15.5422 7.65184 15.6487 7.6939 15.7488C7.73595 15.8489 7.79836 15.9398 7.87704 16.0165C7.95573 16.0932 8.0507 16.1542 8.1538 16.1958C8.25826 16.2374 8.36951 16.2582 8.48076 16.2582C8.59336 16.2582 8.7046 16.2374 8.80906 16.1958C8.91217 16.1542 9.00578 16.0932 9.08447 16.0165C9.16451 15.9398 9.22556 15.8489 9.26761 15.7488C9.30967 15.6487 9.33138 15.5422 9.32866 15.4343V13.5929C9.58778 13.45 9.80213 13.2447 9.95137 12.9978C10.1006 12.7509 10.1793 12.4715 10.1806 12.1856C10.1806 11.7541 10.0016 11.3396 9.68275 11.0342C9.36394 10.7301 8.93252 10.5586 8.48076 10.5586Z" fill="#B9BAC8"/>
</svg>
