<svg width="24" height="24" viewBox="0 0 24 24" fill="none" xmlns="http://www.w3.org/2000/svg">
<path d="M8 7.00018L3 12.0002M3 12.0002L8 17.0002M3 12.0002L15 12.0002M12 7.00018C12 6.7046 12 6.55681 12.011 6.42879C12.1252 5.09822 13.1051 4.00334 14.415 3.74291C14.541 3.71785 14.688 3.70152 14.9816 3.66889L16.0031 3.5554C17.5375 3.3849 18.3048 3.29965 18.9143 3.49471C19.7271 3.75478 20.3906 4.34866 20.7388 5.1277C21 5.71198 21 6.48394 21 8.02787V15.9725C21 17.5164 21 18.2884 20.7388 18.8727C20.3906 19.6517 19.7271 20.2456 18.9143 20.5057C18.3048 20.7007 17.5375 20.6155 16.0031 20.445L14.9817 20.3315C14.6879 20.2988 14.541 20.2825 14.415 20.2575C13.1051 19.997 12.1252 18.9021 12.011 17.5716C12 17.4435 12 17.2958 12 17.0002" stroke="white" stroke-width="2" stroke-linecap="round" stroke-linejoin="round"/>
</svg>
