<svg width="28" height="28" viewBox="0 0 28 28" fill="none" xmlns="http://www.w3.org/2000/svg">
<path fill-rule="evenodd" clip-rule="evenodd" d="M4.2002 7.0001C4.2002 6.2269 4.827 5.6001 5.6002 5.6001H22.4002C23.1734 5.6001 23.8002 6.2269 23.8002 7.0001C23.8002 7.7733 23.1734 8.4001 22.4002 8.4001H5.6002C4.827 8.4001 4.2002 7.7733 4.2002 7.0001Z" fill="white"/>
<path fill-rule="evenodd" clip-rule="evenodd" d="M4.2002 14.0001C4.2002 13.2269 4.827 12.6001 5.6002 12.6001H22.4002C23.1734 12.6001 23.8002 13.2269 23.8002 14.0001C23.8002 14.7733 23.1734 15.4001 22.4002 15.4001H5.6002C4.827 15.4001 4.2002 14.7733 4.2002 14.0001Z" fill="white"/>
<path fill-rule="evenodd" clip-rule="evenodd" d="M4.2002 21.0001C4.2002 20.2269 4.827 19.6001 5.6002 19.6001H22.4002C23.1734 19.6001 23.8002 20.2269 23.8002 21.0001C23.8002 21.7733 23.1734 22.4001 22.4002 22.4001H5.6002C4.827 22.4001 4.2002 21.7733 4.2002 21.0001Z" fill="white"/>
</svg>
