<svg width="17" height="18" viewBox="0 0 17 18" fill="none" xmlns="http://www.w3.org/2000/svg">
<path d="M8.5 16.5488C7.51509 16.5488 6.53982 16.3548 5.62987 15.9779C4.71993 15.601 3.89314 15.0486 3.1967 14.3521C2.50026 13.6557 1.94781 12.8289 1.5709 11.919C1.19399 11.009 1 10.0337 1 9.04883C1 8.06391 1.19399 7.08864 1.5709 6.1787C1.94781 5.26876 2.50026 4.44197 3.1967 3.74553C3.89314 3.04909 4.71993 2.49664 5.62988 2.11973C6.53982 1.74282 7.51509 1.54883 8.5 1.54883C9.48492 1.54883 10.4602 1.74282 11.3701 2.11973C12.2801 2.49664 13.1069 3.04909 13.8033 3.74553C14.4997 4.44197 15.0522 5.26876 15.4291 6.1787C15.806 7.08865 16 8.06392 16 9.04883C16 10.0337 15.806 11.009 15.4291 11.919C15.0522 12.8289 14.4997 13.6557 13.8033 14.3521C13.1069 15.0486 12.2801 15.601 11.3701 15.9779C10.4602 16.3548 9.48491 16.5488 8.5 16.5488L8.5 16.5488Z" stroke="#EAEAEA" stroke-width="1.5"/>
<path d="M8.5 16.5488C6.92411 16.5488 5.38826 16.0524 4.11047 15.1301C2.83267 14.2078 1.87787 12.9064 1.3816 11.4107C0.885329 9.91498 0.872804 8.30095 1.3458 6.79772C1.8188 5.29449 2.75329 3.97844 4.01662 3.0364C5.27994 2.09436 6.80791 1.57419 8.38361 1.54973C9.95931 1.52528 11.5027 1.99778 12.7946 2.90016C14.0866 3.80254 15.0615 5.08895 15.5809 6.57678C16.1003 8.06461 16.1379 9.67825 15.6883 11.1886" stroke="#FF9800" stroke-width="1.5" stroke-linecap="round"/>
<g clip-path="url(#clip0_286_54007)">
<path d="M6.31251 9.98633C6.01876 9.98633 5.74688 10.0895 5.53126 10.2613C5.38457 10.3779 5.26619 10.5262 5.18501 10.695C5.10382 10.8639 5.06194 11.049 5.06251 11.2363C5.06251 11.927 5.62188 12.4863 6.31251 12.4863C6.61635 12.4859 6.90962 12.3748 7.13751 12.1738C7.39688 11.9457 7.56251 11.6113 7.56251 11.2363C7.56251 10.5457 7.00313 9.98633 6.31251 9.98633ZM6.62501 11.3145C6.62501 11.3957 6.58126 11.4738 6.51251 11.5145L6.12188 11.7488C6.08438 11.7707 6.04376 11.7832 6.00001 11.7832C5.92188 11.7832 5.84376 11.7426 5.80001 11.6707C5.73438 11.5582 5.76876 11.4145 5.88126 11.3488L6.15938 11.1832V10.8457C6.15938 10.7176 6.26563 10.6113 6.39376 10.6113C6.52188 10.6113 6.62813 10.7176 6.62813 10.8457V11.3145H6.62501Z" fill="#FF9800"/>
<path opacity="0.4" d="M10.8375 9.3457H11.4688V8.8957C11.4688 8.24883 10.9406 7.7207 10.2937 7.7207H6.70625C6.05938 7.7207 5.53125 8.24883 5.53125 8.8957V10.2613C5.715 10.1141 5.93662 10.0217 6.17057 9.99489C6.40453 9.96809 6.6413 10.0079 6.85359 10.1098C7.06589 10.2117 7.24507 10.3715 7.37049 10.5709C7.49592 10.7702 7.56248 11.0008 7.5625 11.2363C7.5625 11.4707 7.49688 11.6926 7.38125 11.8801C7.31563 11.9926 7.23125 12.0926 7.13438 12.1738H10.2937C10.9406 12.1738 11.4688 11.6457 11.4688 10.9988V10.627H10.875C10.5375 10.627 10.2281 10.3801 10.2 10.0426C10.1813 9.8457 10.2563 9.66133 10.3875 9.5332C10.5031 9.41445 10.6625 9.3457 10.8375 9.3457Z" fill="#FF9800"/>
<path d="M9.39063 6.53345V7.72095H6.70625C6.05938 7.72095 5.53125 8.24907 5.53125 8.89595V7.74907C5.53125 7.3772 5.75938 7.04595 6.10625 6.9147L8.5875 5.9772C8.975 5.83345 9.39063 6.11782 9.39063 6.53345ZM11.7997 9.66407V10.3078C11.7997 10.4797 11.6622 10.6203 11.4872 10.6266H10.8747C10.5372 10.6266 10.2278 10.3797 10.1997 10.0422C10.1809 9.84532 10.2559 9.66095 10.3872 9.53282C10.5028 9.41407 10.6622 9.34532 10.8372 9.34532H11.4872C11.6622 9.35157 11.7997 9.4922 11.7997 9.66407ZM9.125 9.28282H6.9375C6.80938 9.28282 6.70313 9.17657 6.70313 9.04845C6.70313 8.92032 6.80938 8.81407 6.9375 8.81407H9.125C9.25313 8.81407 9.35938 8.92032 9.35938 9.04845C9.35938 9.17657 9.25313 9.28282 9.125 9.28282Z" fill="#FF9800"/>
</g>
<defs>
<clipPath id="clip0_286_54007">
<rect width="7.5" height="7.5" fill="white" transform="translate(4.75 5.29883)"/>
</clipPath>
</defs>
</svg>
