<svg width="24" height="24" viewBox="0 0 24 24" fill="none" xmlns="http://www.w3.org/2000/svg">
<path d="M15.0327 18.015C15.4615 19.6154 14.5118 21.2604 12.9114 21.6892C11.311 22.118 9.66598 21.1683 9.23716 19.5679M11.5332 5.74103C11.8375 5.19373 11.9377 4.53223 11.7628 3.87963C11.4054 2.54597 10.0346 1.75451 8.70094 2.11187C7.36727 2.46922 6.57581 3.84006 6.93317 5.17373C7.10803 5.82633 7.52556 6.3491 8.06266 6.67097M16.8776 9.44547C16.5207 8.11334 15.5678 6.99938 14.2285 6.34864C12.8892 5.69791 11.2733 5.56371 9.73621 5.97557C8.19913 6.38743 6.86681 7.31161 6.03233 8.5448C5.19785 9.77798 4.92957 11.2192 5.28652 12.5513C5.87709 14.7554 5.76241 16.5137 5.38946 17.8499C4.96439 19.3727 4.75186 20.1342 4.80928 20.2871C4.87497 20.462 4.92249 20.51 5.09672 20.5775C5.24901 20.6365 5.88878 20.4651 7.16832 20.1222L19.0334 16.943C20.3129 16.6001 20.9527 16.4287 21.0551 16.3015C21.1722 16.1559 21.1894 16.0905 21.1588 15.9062C21.1321 15.7451 20.5673 15.1919 19.4378 14.0856C18.4467 13.115 17.4682 11.6495 16.8776 9.44547Z" stroke="#2D3C52" stroke-width="1.5" stroke-linecap="round" stroke-linejoin="round"/>
</svg>
