<svg width="21" height="21" viewBox="0 0 21 21" fill="none" xmlns="http://www.w3.org/2000/svg">
<path fill-rule="evenodd" clip-rule="evenodd" d="M4.75098 4.81329C4.22054 4.81329 3.71184 5.02401 3.33676 5.39908C2.96169 5.77415 2.75098 6.28286 2.75098 6.81329V10.8133C2.75098 11.3437 2.96169 11.8524 3.33676 12.2275C3.71184 12.6026 4.22054 12.8133 4.75098 12.8133V6.81329H14.751C14.751 6.28286 14.5403 5.77415 14.1652 5.39908C13.7901 5.02401 13.2814 4.81329 12.751 4.81329H4.75098ZM6.75098 10.8133C6.75098 10.2829 6.96169 9.77415 7.33676 9.39908C7.71184 9.02401 8.22054 8.81329 8.75098 8.81329H16.751C17.2814 8.81329 17.7901 9.02401 18.1652 9.39908C18.5403 9.77415 18.751 10.2829 18.751 10.8133V14.8133C18.751 15.3437 18.5403 15.8524 18.1652 16.2275C17.7901 16.6026 17.2814 16.8133 16.751 16.8133H8.75098C8.22054 16.8133 7.71184 16.6026 7.33676 16.2275C6.96169 15.8524 6.75098 15.3437 6.75098 14.8133V10.8133ZM12.751 14.8133C13.2814 14.8133 13.7901 14.6026 14.1652 14.2275C14.5403 13.8524 14.751 13.3437 14.751 12.8133C14.751 12.2829 14.5403 11.7742 14.1652 11.3991C13.7901 11.024 13.2814 10.8133 12.751 10.8133C12.2205 10.8133 11.7118 11.024 11.3368 11.3991C10.9617 11.7742 10.751 12.2829 10.751 12.8133C10.751 13.3437 10.9617 13.8524 11.3368 14.2275C11.7118 14.6026 12.2205 14.8133 12.751 14.8133Z" fill="white"/>
</svg>
