<svg width="17" height="17" viewBox="0 0 17 17" fill="none" xmlns="http://www.w3.org/2000/svg">
<path d="M8.5 16C7.51509 16 6.53982 15.806 5.62987 15.4291C4.71993 15.0522 3.89314 14.4997 3.1967 13.8033C2.50026 13.1069 1.94781 12.2801 1.5709 11.3701C1.19399 10.4602 1 9.48491 1 8.5C1 7.51509 1.19399 6.53982 1.5709 5.62987C1.94781 4.71993 2.50026 3.89314 3.1967 3.1967C3.89314 2.50026 4.71993 1.94781 5.62988 1.5709C6.53982 1.19399 7.51509 1 8.5 1C9.48492 1 10.4602 1.19399 11.3701 1.5709C12.2801 1.94781 13.1069 2.50026 13.8033 3.1967C14.4997 3.89314 15.0522 4.71993 15.4291 5.62988C15.806 6.53982 16 7.51509 16 8.5C16 9.48492 15.806 10.4602 15.4291 11.3701C15.0522 12.2801 14.4997 13.1069 13.8033 13.8033C13.1069 14.4997 12.2801 15.0522 11.3701 15.4291C10.4602 15.806 9.48491 16 8.5 16L8.5 16Z" stroke="#17C82A" stroke-width="1.5"/>
<path opacity="0.4" d="M8.5 11.625C10.2259 11.625 11.625 10.2259 11.625 8.5C11.625 6.77406 10.2259 5.375 8.5 5.375C6.77406 5.375 5.375 6.77406 5.375 8.5C5.375 10.2259 6.77406 11.625 8.5 11.625Z" fill="#17C82A"/>
<path d="M8.05651 9.61973C7.99437 9.61967 7.9348 9.59494 7.89088 9.55098L7.00651 8.6666C6.96292 8.6225 6.93848 8.56299 6.93848 8.50098C6.93848 8.43897 6.96292 8.37946 7.00651 8.33535C7.09713 8.24473 7.24713 8.24473 7.33776 8.33535L8.05651 9.0541L9.66276 7.44785C9.75338 7.35723 9.90338 7.35723 9.99401 7.44785C10.0846 7.53848 10.0846 7.68848 9.99401 7.7791L8.22213 9.55098C8.17822 9.59494 8.11865 9.61967 8.05651 9.61973Z" fill="#17C82A"/>
</svg>
