<svg width="23" height="23" viewBox="0 0 23 23" fill="none" xmlns="http://www.w3.org/2000/svg">
<g clip-path="url(#clip0_286_80419)">
<path d="M11.5003 4.7915H14.8545C16.1253 4.7915 17.3441 5.29634 18.2427 6.19495C19.1413 7.09356 19.6461 8.31234 19.6461 9.58317C19.6461 10.854 19.1413 12.0728 18.2427 12.9714C17.3441 13.87 16.1253 14.3748 14.8545 14.3748H9.58365L5.73594 18.4257C5.40681 18.7722 4.97397 19.0024 4.50264 19.0815C4.03132 19.1606 3.54705 19.0844 3.12281 18.8643C2.69858 18.6443 2.35736 18.2923 2.15058 17.8614C1.94381 17.4305 1.88267 16.9441 1.9764 16.4755L3.54231 8.64305C3.75967 7.55674 4.34673 6.57931 5.20358 5.87708C6.06043 5.17486 7.13414 4.79124 8.24198 4.7915H11.5003Z" stroke="white" stroke-width="2" stroke-linecap="round" stroke-linejoin="round"/>
<path d="M13.417 14.375L17.3174 18.4805C17.6459 18.8262 18.0776 19.056 18.5477 19.1354C19.0179 19.2149 19.5011 19.1398 19.925 18.9214C20.3488 18.7029 20.6904 18.3529 20.8984 17.9239C21.1065 17.4948 21.1698 17.0099 21.0789 16.5418L19.5455 8.65283" stroke="white" stroke-width="2" stroke-linecap="round" stroke-linejoin="round"/>
<path d="M7.66699 8.625V10.5417" stroke="white" stroke-width="2" stroke-linecap="round" stroke-linejoin="round"/>
<path d="M6.70801 9.5835H8.62467" stroke="white" stroke-width="2" stroke-linecap="round" stroke-linejoin="round"/>
<path d="M13.417 9.5835H15.3337" stroke="white" stroke-width="2" stroke-linecap="round" stroke-linejoin="round"/>
</g>
<defs>
<clipPath id="clip0_286_80419">
<rect width="23" height="23" fill="white"/>
</clipPath>
</defs>
</svg>
