<svg width="15" height="15" viewBox="0 0 15 15" fill="none" xmlns="http://www.w3.org/2000/svg">
<path fill-rule="evenodd" clip-rule="evenodd" d="M1.62458 3.74921C3.88078 3.7186 5.93646 2.85778 7.5 1.45837C9.06353 2.85778 11.1192 3.7186 13.3754 3.74921C13.4573 4.23729 13.5 4.73869 13.5 5.25005C13.5 9.16869 10.9956 12.5024 7.5 13.7379C4.00442 12.5024 1.5 9.16869 1.5 5.25005C1.5 4.73869 1.54265 4.23729 1.62458 3.74921ZM10.4571 6.70714C10.8476 6.31661 10.8476 5.68345 10.4571 5.29292C10.0666 4.9024 9.43341 4.9024 9.04289 5.29292L6.75 7.58582L5.9571 6.79292C5.56658 6.4024 4.93342 6.4024 4.54289 6.79292C4.15237 7.18345 4.15237 7.81661 4.54289 8.20714L6.04289 9.70714C6.23042 9.89467 6.48478 10 6.75 10C7.01521 10 7.26957 9.89467 7.4571 9.70714L10.4571 6.70714Z" fill="#F9F9F9"/>
</svg>
