<svg width="23" height="23" viewBox="0 0 23 23" fill="none" xmlns="http://www.w3.org/2000/svg">
<g clip-path="url(#clip0_286_80434)">
<path d="M13.3438 2.7915V4.70817" stroke="white" stroke-width="2" stroke-linecap="round" stroke-linejoin="round"/>
<path d="M13.3438 8.5415V10.4582" stroke="white" stroke-width="2" stroke-linecap="round" stroke-linejoin="round"/>
<path d="M13.3438 14.2915V16.2082" stroke="white" stroke-width="2" stroke-linecap="round" stroke-linejoin="round"/>
<path d="M3.76042 2.7915H17.1771C17.6854 2.7915 18.1729 2.99344 18.5324 3.35288C18.8918 3.71233 19.0937 4.19984 19.0937 4.70817V7.58317C18.5854 7.58317 18.0979 7.7851 17.7385 8.14455C17.379 8.50399 17.1771 8.99151 17.1771 9.49984C17.1771 10.0082 17.379 10.4957 17.7385 10.8551C18.0979 11.2146 18.5854 11.4165 19.0937 11.4165V14.2915C19.0937 14.7998 18.8918 15.2873 18.5324 15.6468C18.1729 16.0062 17.6854 16.2082 17.1771 16.2082H3.76042C3.25209 16.2082 2.76457 16.0062 2.40513 15.6468C2.04568 15.2873 1.84375 14.7998 1.84375 14.2915V11.4165C2.35208 11.4165 2.83959 11.2146 3.19904 10.8551C3.55848 10.4957 3.76042 10.0082 3.76042 9.49984C3.76042 8.99151 3.55848 8.50399 3.19904 8.14455C2.83959 7.7851 2.35208 7.58317 1.84375 7.58317V4.70817C1.84375 4.19984 2.04568 3.71233 2.40513 3.35288C2.76457 2.99344 3.25209 2.7915 3.76042 2.7915" stroke="white" stroke-width="2" stroke-linecap="round" stroke-linejoin="round"/>
</g>
<defs>
<clipPath id="clip0_286_80434">
<rect width="23" height="23" fill="white"/>
</clipPath>
</defs>
</svg>
