<svg width="23" height="23" viewBox="0 0 23 23" fill="none" xmlns="http://www.w3.org/2000/svg">
<g clip-path="url(#clip0_286_80473)">
<path d="M8.62533 10.5417C10.7424 10.5417 12.4587 8.82542 12.4587 6.70833C12.4587 4.59124 10.7424 2.875 8.62533 2.875C6.50823 2.875 4.79199 4.59124 4.79199 6.70833C4.79199 8.82542 6.50823 10.5417 8.62533 10.5417Z" stroke="white" stroke-width="2" stroke-linecap="round" stroke-linejoin="round"/>
<path d="M2.875 20.125V18.2083C2.875 17.1917 3.27887 16.2166 3.99776 15.4978C4.71665 14.7789 5.69167 14.375 6.70833 14.375H10.5417C11.5583 14.375 12.5334 14.7789 13.2522 15.4978C13.9711 16.2166 14.375 17.1917 14.375 18.2083V20.125" stroke="white" stroke-width="2" stroke-linecap="round" stroke-linejoin="round"/>
<path d="M15.333 2.99951C16.1576 3.21063 16.8884 3.69018 17.4103 4.36256C17.9322 5.03493 18.2155 5.86189 18.2155 6.71305C18.2155 7.56422 17.9322 8.39117 17.4103 9.06355C16.8884 9.73592 16.1576 10.2155 15.333 10.4266" stroke="white" stroke-width="2" stroke-linecap="round" stroke-linejoin="round"/>
<path d="M20.125 20.1248V18.2081C20.1201 17.3621 19.8355 16.5414 19.3155 15.874C18.7954 15.2066 18.0692 14.7301 17.25 14.5186" stroke="white" stroke-width="2" stroke-linecap="round" stroke-linejoin="round"/>
</g>
<defs>
<clipPath id="clip0_286_80473">
<rect width="23" height="23" fill="white"/>
</clipPath>
</defs>
</svg>
