<svg width="24" height="24" viewBox="0 0 24 24" fill="none" xmlns="http://www.w3.org/2000/svg">
<path opacity="0.4" d="M18.0003 20.5H17.0003V20.25C17.0003 19.15 16.1003 18.25 15.0003 18.25H12.7503V15.96C12.5003 15.99 12.2503 16 12.0003 16C11.7503 16 11.5003 15.99 11.2503 15.96V18.25H9.00027C7.90027 18.25 7.00027 19.15 7.00027 20.25V20.5H6.00027C5.59027 20.5 5.25027 20.84 5.25027 21.25C5.25027 21.66 5.59027 22 6.00027 22H18.0003C18.4103 22 18.7503 21.66 18.7503 21.25C18.7503 20.84 18.4103 20.5 18.0003 20.5ZM5.52027 11.64C4.86027 11.39 4.28027 10.98 3.82027 10.52C2.89027 9.49 2.28027 8.26 2.28027 6.82C2.28027 5.38 3.41027 4.25 4.85027 4.25H5.41027C5.15027 4.78 5.00027 5.37 5.00027 6V9C5.00027 9.94 5.18027 10.83 5.52027 11.64ZM21.7203 6.82C21.7203 8.26 21.1103 9.49 20.1803 10.52C19.7203 10.98 19.1403 11.39 18.4803 11.64C18.8203 10.83 19.0003 9.94 19.0003 9V6C19.0003 5.37 18.8503 4.78 18.5903 4.25H19.1503C20.5903 4.25 21.7203 5.38 21.7203 6.82Z" fill="#7E8CA0"/>
<path d="M15 2H9C6.79 2 5 3.79 5 6V9C5 12.87 8.13 16 12 16C15.87 16 19 12.87 19 9V6C19 3.79 17.21 2 15 2ZM14.84 8.45L14.22 9.21C14.12 9.32 14.05 9.54 14.06 9.69L14.12 10.67C14.16 11.27 13.73 11.58 13.17 11.36L12.26 11C12.0903 10.95 11.9097 10.95 11.74 11L10.83 11.36C10.27 11.58 9.84 11.27 9.88 10.67L9.94 9.69C9.94379 9.51631 9.88725 9.34668 9.78 9.21L9.16 8.45C8.77 7.99 8.94 7.48 9.52 7.33L10.47 7.09C10.62 7.05 10.8 6.91 10.88 6.78L11.41 5.96C11.74 5.45 12.26 5.45 12.59 5.96L13.12 6.78C13.2 6.91 13.38 7.05 13.53 7.09L14.48 7.33C15.06 7.48 15.23 7.99 14.84 8.45Z" fill="#7E8CA0"/>
<path opacity="0.4" d="M14.8397 8.44989L14.2197 9.20989C14.1197 9.31989 14.0497 9.53989 14.0597 9.68989L14.1197 10.6699C14.1597 11.2699 13.7297 11.5799 13.1697 11.3599L12.2597 10.9999C12.09 10.9499 11.9095 10.9499 11.7397 10.9999L10.8297 11.3599C10.2697 11.5799 9.83975 11.2699 9.87975 10.6699L9.93975 9.68989C9.94354 9.5162 9.88699 9.34657 9.77975 9.20989L9.15975 8.44989C8.76975 7.98989 8.93975 7.47989 9.51975 7.32989L10.4697 7.08989C10.6197 7.04989 10.7997 6.90989 10.8797 6.77989L11.4097 5.95989C11.7397 5.44989 12.2597 5.44989 12.5897 5.95989L13.1197 6.77989C13.1997 6.90989 13.3797 7.04989 13.5297 7.08989L14.4797 7.32989C15.0597 7.47989 15.2297 7.98989 14.8397 8.44989Z" fill="#7E8CA0"/>
</svg>
