<svg width="38" height="38" viewBox="0 0 38 38" fill="none" xmlns="http://www.w3.org/2000/svg">
<g clip-path="url(#clip0_488_21736)">
<path d="M19 38C29.4934 38 38 29.4934 38 19C38 8.50659 29.4934 0 19 0C8.50659 0 0 8.50659 0 19C0 29.4934 8.50659 38 19 38Z" fill="#F4E5C3"/>
<path d="M19.0001 34.1291C27.3557 34.1291 34.1291 27.3557 34.1291 19.0001C34.1291 10.6446 27.3557 3.87109 19.0001 3.87109C10.6446 3.87109 3.87109 10.6446 3.87109 19.0001C3.87109 27.3557 10.6446 34.1291 19.0001 34.1291Z" fill="white"/>
<path d="M29.213 17.569H24.9413C24.3107 17.569 23.7369 17.8243 23.3258 18.2347C22.9148 18.6457 22.6602 19.2195 22.6602 19.8501C22.6602 21.1183 23.6801 22.1382 24.9413 22.1382H29.213C29.6005 22.1382 29.9145 21.8242 29.9145 21.4368V18.2628C29.9145 17.8805 29.6024 17.5684 29.213 17.5684V17.569ZM24.8417 20.5637C24.4217 20.5637 24.0879 20.1999 24.1364 19.771C24.1734 19.4461 24.4383 19.1831 24.7632 19.148C25.1908 19.1021 25.5521 19.4359 25.5521 19.8539C25.5521 20.2458 25.2348 20.5637 24.8423 20.5637H24.8417Z" fill="#EDA236"/>
<path d="M24.9411 23.201C23.0972 23.201 21.5974 21.6973 21.5974 19.8502C21.5974 18.9547 21.9446 18.1135 22.5751 17.4842C23.2051 16.8536 24.0457 16.507 24.9411 16.507H27.8937C28.0207 16.507 28.1247 16.4023 28.1202 16.2753C28.0577 14.3038 26.4385 12.7305 24.4452 12.7305C17.2949 12.7899 12.0619 12.7892 11.6573 12.7305C11.372 12.689 11.1033 12.5856 11.1033 12.5856C10.929 12.5186 10.8008 12.4695 10.6597 12.359C10.3648 12.1274 10.248 11.8089 10.1714 11.5989C10.1287 11.4821 10.1057 11.3691 10.1057 11.3691C10.0827 11.2351 10.0955 11.1572 10.077 11.1572C10.0425 11.1572 10.0195 13.3413 10.077 23.3146C10.077 25.334 11.7205 26.9845 13.7539 26.9845H24.4516C26.478 26.9845 28.1215 25.334 28.1215 23.3146C28.1215 23.252 28.0705 23.201 28.0079 23.201H24.9405H24.9411Z" fill="#EDA236"/>
<path d="M11.4152 11.665H23.8732C24.124 11.665 24.2478 11.3625 24.064 11.1953C23.6792 10.8455 23.1654 10.6343 22.6133 10.6343H11.4146C11.1248 10.6343 10.8887 10.8653 10.8887 11.15C10.8887 11.4346 11.1248 11.665 11.4146 11.665H11.4152Z" fill="#EDA236"/>
<path d="M14.3213 22.2427C14.2696 22.2574 14.2186 22.2695 14.165 22.2791C13.244 21.9644 12.5661 21.1245 12.4883 20.1167C12.531 20.3535 12.6293 20.5571 12.7844 20.7275C13.0219 21.3753 13.542 21.8961 14.2173 22.1265C14.2703 22.1444 14.3092 22.1891 14.3213 22.2427Z" fill="white"/>
<path d="M20.7079 18.172C20.7079 18.2888 20.6613 18.4107 20.5694 18.5377C20.3977 18.7745 20.2445 18.8939 20.108 18.8939C20.0288 18.8939 19.9165 18.8454 19.7716 18.7483C19.5865 18.5996 19.3408 18.5243 19.0338 18.5243C18.7632 18.5243 18.497 18.6137 18.2347 18.7905C18.2194 18.8007 18.2047 18.8109 18.19 18.8211C18.0771 18.9041 17.9807 19.0151 17.9003 19.1562C17.883 19.1721 17.8658 19.1875 17.8479 19.2021C17.8307 19.2175 17.8128 19.2321 17.795 19.2462C17.7241 19.3036 17.6507 19.356 17.5748 19.4038C17.5562 19.4153 17.5371 19.4274 17.518 19.4383C17.4988 19.4498 17.4797 19.4606 17.4599 19.4708C17.4465 19.4785 17.4337 19.4855 17.4203 19.4919C17.4171 19.4938 17.4146 19.4951 17.4114 19.497C17.382 19.5123 17.352 19.527 17.322 19.5404C17.3067 19.5474 17.292 19.5538 17.2767 19.5602C17.2614 19.5672 17.2461 19.5736 17.2307 19.5793C17.1082 19.6291 16.9805 19.6668 16.8478 19.6936C16.8261 19.6981 16.8038 19.7025 16.7814 19.7057C16.7776 19.7064 16.7738 19.707 16.7699 19.7076C16.7495 19.7115 16.7284 19.7147 16.7074 19.7172C16.6965 19.7185 16.685 19.7204 16.6742 19.721L16.6461 19.7242V19.7064C16.6461 19.7121 16.6461 19.7178 16.6461 19.7242C16.6346 19.7255 16.6225 19.7268 16.611 19.7281C16.5957 19.73 16.5797 19.7312 16.5638 19.7325C16.4961 19.7383 16.4278 19.7402 16.357 19.7402C16.3078 19.7402 16.2593 19.7389 16.2108 19.7364C16.1738 19.7338 16.1381 19.7312 16.1017 19.7274C16.0927 19.7261 16.0844 19.7261 16.0762 19.7242C16.0762 19.7166 16.0755 19.7089 16.0755 19.7012C15.5228 19.6464 15.0441 19.4115 14.6401 18.9973C14.6535 19.0132 14.6663 19.0298 14.6778 19.0464C14.6656 19.0343 14.6535 19.0222 14.6414 19.0094C14.5878 18.9539 14.5373 18.8977 14.4907 18.8403C14.5035 18.8517 14.5163 18.8626 14.5284 18.8747C14.5124 18.8568 14.4965 18.8377 14.4812 18.8192C14.4793 18.8205 14.478 18.8224 14.4773 18.8237C14.4812 18.8294 14.4863 18.8351 14.4907 18.8409C14.4856 18.8364 14.4799 18.8313 14.4754 18.8269C14.2374 18.6201 13.9744 18.5167 13.6859 18.5167C13.5755 18.5167 13.4695 18.532 13.3668 18.5633C13.3336 18.5728 13.3004 18.5843 13.2685 18.5977C13.1179 18.6577 12.9755 18.7528 12.8428 18.883C12.7177 19.0043 12.6245 19.1447 12.562 19.3023C12.4994 19.4613 12.4675 19.6393 12.4675 19.8353C12.4675 19.9329 12.4752 20.0255 12.4911 20.1136V20.1148C12.5683 21.1226 13.2462 21.9626 14.1678 22.2766C14.0197 22.3047 13.8659 22.3187 13.7063 22.3187C13.0394 22.3187 12.4707 22.0768 12.0029 21.5937C11.535 21.1105 11.3008 20.5348 11.3008 19.8672C11.3008 19.5028 11.3672 19.1613 11.4986 18.8422C11.6301 18.5237 11.8063 18.2569 12.0252 18.0418C12.2448 17.8261 12.4975 17.6569 12.7834 17.5344C12.8626 17.4999 12.9436 17.4706 13.0241 17.4463C13.0355 17.4425 13.0464 17.4393 13.0585 17.4355C13.2653 17.3742 13.4759 17.3423 13.6917 17.3423C13.7746 17.3423 13.8563 17.3461 13.9361 17.3538C14.0848 17.3678 14.2278 17.3953 14.3669 17.4361C14.411 17.4489 14.4544 17.4629 14.4971 17.4782C14.7914 17.5835 15.0639 17.7508 15.3128 17.9793C15.3371 18.0016 15.3607 18.0246 15.3849 18.0475C15.4443 18.1056 15.4998 18.1656 15.5515 18.2269C15.6051 18.2901 15.6677 18.3456 15.7372 18.389C15.7372 18.389 15.7379 18.389 15.7385 18.3897C15.8317 18.4477 15.9287 18.4911 16.0289 18.5205C16.0653 18.5313 16.1017 18.5396 16.1387 18.5467C16.2057 18.5588 16.2746 18.5652 16.3449 18.5652C16.4272 18.5652 16.507 18.5575 16.5848 18.5409C16.7106 18.5147 16.8267 18.4618 16.932 18.389C17.0054 18.3386 17.0731 18.2786 17.1344 18.2122C17.1478 18.1975 17.1605 18.1835 17.1739 18.1695C17.2397 18.1031 17.3073 18.0405 17.3795 17.9818C17.5039 17.8797 17.6386 17.7897 17.7835 17.7118C18.1026 17.5363 18.4223 17.4253 18.744 17.3806C18.8564 17.3646 18.9687 17.3563 19.081 17.3563C19.2878 17.3563 19.4972 17.3882 19.7103 17.4521C19.9235 17.5159 20.085 17.5804 20.1948 17.6461L20.3531 17.7386C20.4322 17.7871 20.4941 17.8267 20.5381 17.8574C20.6524 17.9493 20.7092 18.0539 20.7092 18.1701L20.7079 18.172Z" fill="white"/>
<path d="M14.5259 18.8788C14.514 18.8671 14.5014 18.8561 14.4888 18.8438C14.4844 18.838 14.48 18.8321 14.4756 18.8263C14.4762 18.825 14.4775 18.8231 14.4794 18.8218C14.4945 18.8406 14.5096 18.86 14.5259 18.8781V18.8788Z" fill="white"/>
<path d="M14.5259 18.8788C14.514 18.8671 14.5014 18.8561 14.4888 18.8438C14.4844 18.838 14.48 18.8321 14.4756 18.8263C14.4762 18.825 14.4775 18.8231 14.4794 18.8218C14.4945 18.8406 14.5096 18.86 14.5259 18.8781V18.8788Z" fill="white"/>
<path d="M16.0754 19.7273C15.5756 19.6743 15.1359 19.4739 14.7574 19.1274C14.7299 19.1025 14.7031 19.0763 14.6763 19.0501C14.6648 19.0335 14.6521 19.0176 14.6387 19.001C15.0433 19.4152 15.522 19.6501 16.0741 19.705C16.0741 19.7126 16.0747 19.7203 16.0747 19.7279L16.0754 19.7273Z" fill="white"/>
<path d="M16.074 19.8897H16.0746C16.0746 19.9018 16.0746 19.9139 16.074 19.9248C16.074 19.9343 16.0733 19.9452 16.072 19.9548C16.0561 20.2975 15.982 20.6141 15.8499 20.9045C15.7382 21.1502 15.5851 21.3768 15.3904 21.5861C15.3215 21.6608 15.2487 21.7297 15.174 21.7929C15.1734 21.7948 15.1715 21.7955 15.1715 21.7955C15.0425 21.8982 14.9072 21.9863 14.7675 22.0584C14.7713 22.0591 14.7758 22.061 14.7796 22.0616C14.6679 22.1223 14.5517 22.172 14.4311 22.2097C14.4215 22.2135 14.4107 22.2167 14.4011 22.2199C14.3743 22.2282 14.3481 22.2352 14.3213 22.2416C14.2696 22.2563 14.2186 22.2684 14.165 22.278C13.244 21.9633 12.5661 21.1234 12.4883 20.1156C12.531 20.3524 12.6293 20.556 12.7844 20.7264C12.8029 20.7475 12.8234 20.7685 12.8438 20.7883C13.0416 20.9798 13.2586 21.096 13.4935 21.1368C13.558 21.1483 13.6231 21.1534 13.6901 21.1534C13.8069 21.1534 13.9192 21.1368 14.0284 21.1036C14.029 21.103 14.0309 21.103 14.0322 21.103C14.2109 21.0455 14.3781 20.9447 14.5339 20.7973C14.5747 20.7596 14.6117 20.7194 14.6449 20.6766C14.6673 20.6479 14.689 20.6185 14.7087 20.5879C14.8421 20.3824 14.9092 20.1341 14.9092 19.8424C14.9092 19.6797 14.8881 19.531 14.8466 19.395L14.8536 19.4001C14.9277 19.4442 15.5321 19.8048 16.0746 19.8654C16.0746 19.8724 16.074 19.8801 16.074 19.889V19.8897Z" fill="white"/>
<path d="M15.1719 21.7959C15.0481 21.9 14.9173 21.9883 14.78 22.0607C14.7762 22.0594 14.7724 22.0582 14.7686 22.0575C14.9083 21.9858 15.043 21.8981 15.1719 21.7959Z" fill="white"/>
<path d="M20.701 21.4903C20.701 21.5828 20.6723 21.6594 20.6123 21.7213C20.5618 21.7737 20.5038 21.8209 20.4393 21.8637C20.4125 21.8803 20.3838 21.8981 20.3519 21.9186L20.3461 21.9218C20.288 21.9569 20.2319 21.9907 20.1776 22.0239C20.1425 22.0449 20.0902 22.0698 20.02 22.0966C20.0168 22.0986 20.0136 22.0998 20.0104 22.1005C19.9249 22.1356 19.8247 22.1707 19.7091 22.2051C19.593 22.2396 19.4781 22.2645 19.3639 22.2798C19.3492 22.2824 19.3358 22.2849 19.3211 22.2856C19.3141 22.2862 19.3064 22.2881 19.2988 22.2888C19.2796 22.2913 19.2611 22.2926 19.2413 22.2945H19.2349C19.2094 22.297 19.1832 22.2977 19.1577 22.2996C19.1328 22.3002 19.1079 22.3015 19.0837 22.3015H19.0798C19.053 22.3015 19.0269 22.3009 19.0001 22.2996C18.9854 22.299 18.972 22.2977 18.9573 22.2971C18.9145 22.2951 18.8737 22.2919 18.8309 22.2875H18.8271C18.7996 22.2843 18.7735 22.2811 18.746 22.2773H18.7428C18.7428 22.2773 18.7365 22.2766 18.7339 22.2753C18.6969 22.2702 18.6599 22.2639 18.6222 22.2568C18.566 22.2466 18.5086 22.2332 18.4518 22.2192C18.3746 22.1988 18.2967 22.1739 18.2176 22.1445L18.1595 22.1228C18.0337 22.0737 17.908 22.0143 17.7829 21.9447C17.6374 21.8675 17.5034 21.7775 17.3789 21.6748C17.3074 21.616 17.2391 21.5541 17.1734 21.4871C17.16 21.4737 17.1459 21.459 17.1332 21.4444C16.9857 21.2835 16.7981 21.1603 16.5843 21.1157C16.5064 21.0997 16.4266 21.0914 16.3443 21.0914C16.2741 21.0914 16.2052 21.0971 16.1382 21.1099C16.1011 21.1163 16.0648 21.1252 16.0284 21.1354C15.9799 21.1488 15.932 21.1667 15.8848 21.1884C15.9269 21.1176 15.9639 21.0448 15.9977 20.9708C16.1375 20.6625 16.2173 20.3236 16.2339 19.9668C16.2358 19.9547 16.2364 19.9426 16.2364 19.9304V19.9183C16.7509 19.8979 17.1198 19.7983 17.3661 19.6975C17.3687 19.6968 17.3719 19.6956 17.3744 19.6943C17.6342 19.5883 17.7567 19.4798 17.7721 19.4658C17.774 19.4651 17.7746 19.4639 17.7746 19.4639C17.7446 19.5768 17.7306 19.6975 17.7306 19.8251C17.7306 20.0466 17.7746 20.2451 17.8633 20.4206C17.8799 20.4551 17.8978 20.4889 17.9182 20.5195C17.9955 20.6491 18.0899 20.7544 18.1991 20.8361C18.2156 20.8482 18.2335 20.8604 18.2508 20.8712C18.5029 21.041 18.7652 21.1259 19.0358 21.1259C19.1717 21.1259 19.3007 21.1093 19.4213 21.0735C19.5419 21.0384 19.6287 21.0027 19.6811 20.9676L19.8004 20.8821C19.9504 20.7946 20.0551 20.7499 20.117 20.7499C20.2197 20.7499 20.3302 20.8214 20.4463 20.9644C20.447 20.965 20.4489 20.9663 20.4495 20.9676C20.4846 21.011 20.521 21.062 20.558 21.1195C20.6544 21.2733 20.7029 21.3958 20.7029 21.4884L20.701 21.4903Z" fill="white"/>
<path d="M17.7707 19.4668C17.7554 19.4814 17.6328 19.5887 17.373 19.6941C17.3788 19.6916 17.3833 19.6891 17.3884 19.6872C17.4216 19.6725 17.4541 19.6567 17.4841 19.6408C17.4892 19.6383 17.493 19.6357 17.4975 19.6338C17.509 19.6281 17.5211 19.6217 17.5332 19.6154C17.5339 19.6148 17.5358 19.6135 17.5364 19.6129C17.5581 19.6014 17.5792 19.5894 17.6003 19.5779C17.6207 19.5659 17.6405 19.5538 17.6615 19.5411C17.6986 19.5176 17.7356 19.4928 17.7713 19.4674L17.7707 19.4668Z" fill="white"/>
<path d="M20.7078 21.4872C20.7078 21.6034 20.6497 21.708 20.5361 21.8006C20.5093 21.8184 20.4774 21.8401 20.4385 21.8644C20.5029 21.8216 20.561 21.7744 20.6114 21.7221C20.6708 21.6602 20.7002 21.5836 20.7002 21.491C20.7002 21.3985 20.6517 21.2759 20.5553 21.1221C20.5183 21.064 20.4819 21.0136 20.4468 20.9702C20.4863 21.0136 20.5272 21.0647 20.568 21.1221C20.6606 21.2491 20.7072 21.371 20.7072 21.4878L20.7078 21.4872Z" fill="white"/>
<path d="M14.5259 18.8788C14.514 18.8671 14.5014 18.8561 14.4888 18.8438C14.4844 18.838 14.48 18.8321 14.4756 18.8263C14.4762 18.825 14.4775 18.8231 14.4794 18.8218C14.4945 18.8406 14.5096 18.86 14.5259 18.8781V18.8788Z" fill="white"/>
<path d="M13.4862 19.4264C13.446 19.413 13.1467 19.4213 13.0829 19.4238C13.0376 19.4295 13.0395 19.4767 13.0376 19.5129C13.035 19.5658 13.0388 19.6046 13.0407 19.6562C13.042 19.7071 13.0165 19.8892 13.065 19.9121C13.0931 19.9255 13.2412 19.9223 13.2826 19.9223C13.326 19.9223 13.4613 19.9306 13.4939 19.9115C13.5233 19.8937 13.5673 19.8325 13.5922 19.8033C13.6177 19.7733 13.6694 19.7141 13.6764 19.6766C13.6809 19.6428 13.6464 19.6104 13.6267 19.5849C13.6018 19.5518 13.5207 19.4416 13.4862 19.427V19.4264Z" fill="white"/>
<path d="M13.1055 19.6325C13.103 19.5987 13.0953 19.5287 13.1151 19.5013C13.131 19.4854 13.1662 19.4905 13.1866 19.4918C13.2632 19.4937 13.3404 19.4873 13.4163 19.4873C13.4744 19.4873 13.4763 19.5077 13.5121 19.5503C13.5383 19.5815 13.5606 19.6064 13.5893 19.6356C13.6308 19.677 13.604 19.6936 13.5689 19.7286C13.5325 19.7642 13.5076 19.8005 13.4744 19.8362C13.4489 19.8636 13.4317 19.8546 13.3953 19.8534C13.3174 19.8502 13.2344 19.8515 13.1559 19.8521C13.1081 19.8521 13.1004 19.8419 13.1017 19.7897C13.103 19.7407 13.1087 19.6898 13.1055 19.6414V19.6337V19.6325Z" fill="white"/>
<path d="M14.5158 19.6737C14.5152 19.6349 14.5209 19.5935 14.5209 19.5528C14.5209 19.5203 14.5209 19.4528 14.496 19.4293C14.4832 19.4197 14.443 19.4223 14.4277 19.4216C14.3326 19.4184 14.2337 19.4178 14.138 19.4191C14.0467 19.4203 14.0467 19.4414 13.9912 19.5076C13.9682 19.5349 13.8814 19.6381 13.875 19.6667C13.8839 19.7119 14.0065 19.8564 14.0435 19.8959C14.0735 19.9277 14.1118 19.9233 14.1526 19.9227C14.1814 19.9227 14.2101 19.922 14.2388 19.922C14.2771 19.922 14.4743 19.9239 14.4915 19.915C14.526 19.8972 14.5215 19.8068 14.5209 19.7711C14.5203 19.7387 14.5177 19.7068 14.5164 19.6744L14.5158 19.6737Z" fill="white"/>
<path d="M13.98 19.7203C13.9187 19.6541 13.9596 19.6426 14.0106 19.5892C14.0304 19.5688 14.0789 19.5039 14.0961 19.4943C14.1185 19.4816 14.1842 19.4898 14.2123 19.4911C14.2844 19.493 14.3489 19.4924 14.4204 19.4911C14.4567 19.4905 14.4516 19.5064 14.4523 19.5408C14.4536 19.5853 14.451 19.6261 14.4485 19.6707C14.4485 19.6821 14.451 19.7146 14.4516 19.7286C14.4529 19.7591 14.4663 19.8381 14.4255 19.8483C14.4006 19.8546 14.3176 19.8502 14.2844 19.8508C14.2353 19.8515 14.1861 19.8527 14.137 19.8546C14.0885 19.8559 14.0808 19.8362 14.0502 19.8005C14.0272 19.7738 14.003 19.7477 13.9787 19.7216L13.98 19.7203Z" fill="white"/>
<path d="M14.0303 20.0262C14.0316 19.9433 13.9991 19.9324 13.9416 19.8845C13.9155 19.8628 13.8153 19.7786 13.7878 19.7709C13.7553 19.7652 13.6965 19.8201 13.6691 19.8411C13.641 19.8628 13.5478 19.9318 13.5351 19.9598C13.5204 19.9918 13.5268 20.0792 13.5268 20.1181C13.5268 20.1615 13.5242 20.3409 13.5319 20.3702C13.5459 20.4213 13.62 20.4136 13.6627 20.4136C13.7195 20.4136 13.7687 20.4073 13.8267 20.4105C13.8491 20.4117 13.8708 20.4136 13.8931 20.4136C13.9244 20.4136 13.9908 20.4136 14.0157 20.3939C14.0303 20.3798 14.0265 20.3536 14.0272 20.3339C14.0303 20.2311 14.0291 20.129 14.0303 20.0262Z" fill="white"/>
<path d="M13.5957 20.0301C13.5951 19.9843 13.6028 19.983 13.6385 19.9537C13.673 19.9251 13.7011 19.8983 13.7336 19.8684C13.7961 19.8137 13.8038 19.8512 13.853 19.8983C13.8798 19.9238 13.9072 19.9435 13.9346 19.9677C13.9749 20.0053 13.9615 20.0327 13.9602 20.0842C13.9583 20.1536 13.9589 20.2179 13.9602 20.2867C13.9589 20.3574 13.9264 20.3465 13.867 20.3453C13.8217 20.344 13.7879 20.3402 13.7413 20.3434C13.7132 20.3453 13.6213 20.3561 13.6053 20.3287C13.5951 20.3115 13.6002 20.2415 13.6002 20.2179C13.5996 20.1555 13.5977 20.0932 13.5964 20.0308L13.5957 20.0301Z" fill="white"/>
<path d="M14.0297 19.2316C14.0297 19.1901 14.0322 18.9744 14.0227 18.9578C14.0016 18.9214 13.8835 18.931 13.8433 18.931C13.7986 18.931 13.7546 18.931 13.7099 18.9297C13.6761 18.9285 13.5504 18.9208 13.535 18.9578C13.5248 18.9827 13.5274 19.1493 13.5267 19.1895C13.5267 19.2355 13.5242 19.2878 13.5261 19.3325C13.5325 19.4059 13.5587 19.4123 13.6129 19.4569C13.6512 19.4888 13.7316 19.5571 13.7744 19.5737C13.7954 19.5782 13.8254 19.5488 13.842 19.5361C13.8771 19.5099 14.015 19.411 14.0246 19.3765C14.0341 19.342 14.0303 19.2693 14.0297 19.231V19.2316Z" fill="white"/>
<path d="M13.5974 19.192C13.5974 19.1411 13.5955 19.087 13.5974 19.0367C13.5987 18.9991 13.6223 18.9953 13.6561 18.9947C13.7053 18.994 13.7544 18.9991 13.8055 18.9979C13.9918 18.9915 13.9542 18.9858 13.9574 19.1704C13.9574 19.199 13.965 19.3238 13.9574 19.341C13.9395 19.3786 13.8687 19.4251 13.8361 19.4588C13.787 19.5091 13.7806 19.5186 13.7225 19.4633C13.69 19.4327 13.6587 19.4066 13.6255 19.3773C13.5834 19.3404 13.5949 19.3136 13.5961 19.2608C13.5961 19.2379 13.5974 19.2143 13.5974 19.1914V19.192Z" fill="white"/>
<path d="M18.924 19.7994C18.9348 19.7426 18.9297 19.6723 18.8972 19.6213C18.8914 19.6092 18.8851 19.597 18.8774 19.5855C18.841 19.5313 18.7893 19.4911 18.7268 19.4707C18.5998 19.4298 18.46 19.4834 18.3904 19.5964C18.3196 19.7126 18.34 19.8696 18.4428 19.9602C18.5449 20.0508 18.7006 20.0591 18.8104 19.9768C18.8678 19.9334 18.9099 19.8696 18.924 19.7987V19.7994Z" fill="white"/>
<path d="M18.8017 19.8931C18.7295 19.9701 18.6115 19.9854 18.5215 19.9307C18.4315 19.8753 18.3932 19.7588 18.4347 19.6614C18.4743 19.5691 18.5706 19.513 18.6708 19.527C18.7264 19.5347 18.7768 19.5627 18.8125 19.606C18.8304 19.6276 18.8438 19.6537 18.8546 19.6798C18.8566 19.6843 18.8578 19.6881 18.8591 19.6926C18.8623 19.7161 18.8636 19.7416 18.861 19.7651C18.8559 19.8129 18.8342 19.8587 18.8017 19.8937V19.8931Z" fill="white"/>
<path d="M19.8198 19.61C19.7834 19.5557 19.7317 19.5155 19.6692 19.4951C19.5421 19.4542 19.4024 19.5078 19.3328 19.6208C19.262 19.737 19.2824 19.894 19.3851 19.9846C19.4873 20.0752 19.643 20.0835 19.7528 20.0012C19.8102 19.9578 19.8523 19.894 19.8664 19.8231C19.8772 19.7663 19.8721 19.6961 19.8396 19.6451C19.8338 19.6329 19.8274 19.6208 19.8198 19.6093V19.61Z" fill="white"/>
<path d="M19.8024 19.7889C19.7973 19.8367 19.7756 19.8825 19.7431 19.9175C19.671 19.9946 19.5529 20.0098 19.4629 19.9551C19.3729 19.8997 19.3346 19.7832 19.3761 19.6858C19.4157 19.5935 19.512 19.5374 19.6122 19.5515C19.6678 19.5591 19.7182 19.5871 19.7539 19.6304C19.7718 19.652 19.7852 19.6781 19.7961 19.7042C19.798 19.7087 19.7992 19.7125 19.8005 19.717C19.8037 19.7405 19.805 19.766 19.8024 19.7896V19.7889Z" fill="white"/>
<path d="M19.1519 19.968C19.0951 19.9572 19.0248 19.9623 18.9738 19.9948C18.9617 20.0006 18.9495 20.007 18.938 20.0146C18.8838 20.051 18.8436 20.1027 18.8232 20.1653C18.7389 20.4684 19.0963 20.6727 19.3127 20.4493C19.4033 20.3472 19.4116 20.1914 19.3293 20.0816C19.2859 20.0242 19.2221 19.9821 19.1512 19.968H19.1519Z" fill="white"/>
<path d="M19.2837 20.3698C19.2282 20.4596 19.1114 20.4978 19.0138 20.4564C18.9212 20.4169 18.8651 20.3208 18.8791 20.2209C18.8868 20.1655 18.9148 20.1152 18.9582 20.0795C18.9799 20.0617 19.0061 20.0483 19.0323 20.0375C19.0367 20.0356 19.0406 20.0343 19.045 20.033C19.0687 20.0299 19.0942 20.0286 19.1178 20.0311C19.1657 20.0362 19.2116 20.0579 19.2467 20.0903C19.324 20.1623 19.3393 20.2801 19.2844 20.3698H19.2837Z" fill="white"/>
<path d="M18.9493 19.5362C19.0654 19.607 19.2224 19.5866 19.3131 19.4838C19.4037 19.3817 19.412 19.226 19.3297 19.1162C19.2588 19.0243 19.1401 18.9745 19.0259 19.0071C18.978 19.0205 18.9199 19.0575 18.8861 19.0939C18.7629 19.2253 18.7929 19.4379 18.9442 19.533L18.9493 19.5362Z" fill="white"/>
<path d="M19.2462 19.1252C19.3234 19.1972 19.3387 19.3149 19.2838 19.4047C19.2283 19.4945 19.1115 19.5327 19.0138 19.4913C18.8383 19.4136 18.8294 19.1774 18.9998 19.0877C19.04 19.0667 19.0579 19.0622 19.1051 19.0654C19.1594 19.0686 19.206 19.0896 19.2462 19.1259V19.1252Z" fill="white"/>
</g>
<defs>
<clipPath id="clip0_488_21736">
<rect width="38" height="38" fill="white"/>
</clipPath>
</defs>
</svg>
