<svg width="32" height="32" viewBox="0 0 32 32" fill="none" xmlns="http://www.w3.org/2000/svg">
<circle cx="16" cy="16" r="16" fill="#D5FFF0"/>
<path d="M7.01774 8C6.50902 8 6.02114 8.21071 5.66142 8.58579C5.3017 8.96086 5.09961 9.46957 5.09961 10V14C5.60833 14 6.09621 14.2107 6.45593 14.5858C6.81565 14.9609 7.01774 15.4696 7.01774 16C7.01774 16.5304 6.81565 17.0391 6.45593 17.4142C6.09621 17.7893 5.60833 18 5.09961 18V22C5.09961 22.5304 5.3017 23.0391 5.66142 23.4142C6.02114 23.7893 6.50902 24 7.01774 24H22.3628C22.8715 24 23.3594 23.7893 23.7191 23.4142C24.0788 23.0391 24.2809 22.5304 24.2809 22V18C23.7722 18 23.2843 17.7893 22.9246 17.4142C22.5649 17.0391 22.3628 16.5304 22.3628 16C22.3628 15.4696 22.5649 14.9609 22.9246 14.5858C23.2843 14.2107 23.7722 14 24.2809 14V10C24.2809 9.46957 24.0788 8.96086 23.7191 8.58579C23.3594 8.21071 22.8715 8 22.3628 8H7.01774ZM18.047 11L19.4856 12.5L11.3335 21L9.89493 19.5L18.047 11ZM11.6308 11.04C12.5707 11.04 13.3284 11.83 13.3284 12.81C13.3284 13.2794 13.1495 13.7296 12.8312 14.0616C12.5128 14.3935 12.0811 14.58 11.6308 14.58C10.691 14.58 9.93329 13.79 9.93329 12.81C9.93329 12.3406 10.1121 11.8904 10.4305 11.5584C10.7488 11.2265 11.1806 11.04 11.6308 11.04ZM17.7497 17.42C18.6896 17.42 19.4472 18.21 19.4472 19.19C19.4472 19.6594 19.2684 20.1096 18.95 20.4416C18.6317 20.7735 18.1999 20.96 17.7497 20.96C16.8098 20.96 16.0521 20.17 16.0521 19.19C16.0521 18.7206 16.231 18.2704 16.5493 17.9384C16.8677 17.6065 17.2995 17.42 17.7497 17.42Z" fill="url(#paint0_linear_1016_3306)"/>
<defs>
<linearGradient id="paint0_linear_1016_3306" x1="5.09961" y1="8" x2="24.9006" y2="23.1923" gradientUnits="userSpaceOnUse">
<stop stop-color="#17C82A"/>
<stop offset="1" stop-color="#C2F9A7"/>
</linearGradient>
</defs>
</svg>
