<svg width="17" height="14" viewBox="0 0 17 14" fill="none" xmlns="http://www.w3.org/2000/svg">
<path fill-rule="evenodd" clip-rule="evenodd" d="M6.75706 1.09858C7.52167 -0.260724 9.47875 -0.260725 10.2434 1.09858L15.8237 11.0191C16.5736 12.3523 15.6102 13.9996 14.0805 13.9996H2.9199C1.39025 13.9996 0.426823 12.3523 1.17675 11.0191L6.75706 1.09858ZM9.50012 10.9998C9.50012 11.552 9.05241 11.9998 8.50012 11.9998C7.94784 11.9998 7.50012 11.552 7.50012 10.9998C7.50012 10.4475 7.94784 9.99976 8.50012 9.99976C9.05241 9.99976 9.50012 10.4475 9.50012 10.9998ZM8.50012 2.99976C7.94784 2.99976 7.50012 3.44747 7.50012 3.99976V6.99976C7.50012 7.55204 7.94784 7.99976 8.50012 7.99976C9.05241 7.99976 9.50012 7.55204 9.50012 6.99976V3.99976C9.50012 3.44747 9.05241 2.99976 8.50012 2.99976Z" fill="#FBBF24"/>
</svg>
