<svg width="24" height="24" viewBox="0 0 24 24" fill="none" xmlns="http://www.w3.org/2000/svg">
<path d="M2.00023 22.7478C1.88474 22.7469 1.77097 22.7197 1.66756 22.6683C1.56416 22.6168 1.47384 22.5425 1.40346 22.4509C1.33309 22.3593 1.28452 22.2529 1.26143 22.1397C1.23834 22.0266 1.24136 21.9096 1.27023 21.7978L2.53023 17.0878C1.69023 15.5278 1.25023 13.7678 1.25023 11.9878C1.25023 6.05779 6.07023 1.23779 12.0002 1.23779C17.9302 1.23779 22.7502 6.05779 22.7502 11.9878C22.7502 17.9178 17.9302 22.7378 12.0002 22.7378C10.1902 22.7378 8.42023 22.2878 6.84023 21.4278L2.20023 22.7178C2.13023 22.7378 2.07023 22.7478 2.00023 22.7478ZM6.94023 19.8778C7.07023 19.8778 7.20023 19.9178 7.32023 19.9778C8.73023 20.8078 10.3502 21.2478 12.0002 21.2478C17.1002 21.2478 21.2502 17.0978 21.2502 11.9978C21.2502 6.89779 17.1002 2.74779 12.0002 2.74779C6.90023 2.74779 2.75023 6.89779 2.75023 11.9978C2.75023 13.6278 3.18023 15.2178 3.99023 16.6178C4.09023 16.7878 4.12023 16.9978 4.07023 17.1878L3.07023 20.9278L6.75023 19.9078C6.81023 19.8878 6.88023 19.8778 6.94023 19.8778Z" fill="#2D3C52"/>
<path d="M14.7402 17.7598C14.1202 17.7598 13.4802 17.6198 12.8102 17.3298C12.1802 17.0598 11.5502 16.6998 10.9402 16.2498C10.3402 15.8098 9.75023 15.3098 9.21023 14.7698C8.67023 14.2198 8.17023 13.6398 7.73023 13.0398C7.28023 12.4098 6.92023 11.7898 6.66023 11.1798C6.38023 10.5198 6.24023 9.86981 6.24023 9.24981C6.24023 8.80981 6.32023 8.38981 6.47023 7.99981C6.63023 7.58981 6.89023 7.21981 7.23023 6.89981C7.87023 6.26981 8.79024 6.03981 9.52024 6.38981C9.77024 6.49981 9.98023 6.67981 10.1402 6.91981L11.3002 8.54981C11.4202 8.70981 11.5102 8.87981 11.5802 9.04981C11.6602 9.24981 11.7102 9.44981 11.7102 9.63981C11.7102 9.89981 11.6402 10.1598 11.5002 10.3898C11.4102 10.5398 11.2802 10.7198 11.1102 10.8898L10.9802 11.0298C11.0402 11.1098 11.1102 11.2098 11.2202 11.3298C11.4302 11.5698 11.6602 11.8298 11.9102 12.0798C12.1602 12.3198 12.4102 12.5598 12.6602 12.7698C12.7802 12.8698 12.8802 12.9498 12.9602 12.9998L13.1002 12.8598C13.2802 12.6798 13.4602 12.5398 13.6402 12.4498C13.9702 12.2398 14.4802 12.1898 14.9302 12.3798C15.0902 12.4398 15.2502 12.5298 15.4202 12.6498L17.0902 13.8298C17.3202 13.9898 17.5002 14.2098 17.6202 14.4598C17.7202 14.7098 17.7602 14.9298 17.7602 15.1598C17.7602 15.4598 17.6902 15.7498 17.5602 16.0298C17.4302 16.2898 17.2802 16.5198 17.1002 16.7298C16.7802 17.0798 16.4102 17.3398 16.0102 17.5098C15.6102 17.6798 15.1802 17.7598 14.7402 17.7598ZM8.79023 7.73981C8.73023 7.73981 8.53023 7.73981 8.28023 7.98981C8.09023 8.16981 7.96023 8.35981 7.87023 8.56981C7.78023 8.77981 7.74023 9.01981 7.74023 9.25981C7.74023 9.67981 7.84023 10.1298 8.04023 10.6098C8.25023 11.1098 8.56023 11.6398 8.94023 12.1698C9.33023 12.6998 9.77023 13.2298 10.2602 13.7198C10.7502 14.1998 11.2702 14.6498 11.8102 15.0498C12.3302 15.4298 12.8602 15.7298 13.3902 15.9598C14.1502 16.2898 14.8502 16.3698 15.4202 16.1298C15.6202 16.0498 15.8002 15.9098 15.9802 15.7298C16.0702 15.6298 16.1402 15.5298 16.2002 15.3998C16.2302 15.3298 16.2502 15.2498 16.2502 15.1798C16.2502 15.1598 16.2502 15.1298 16.2202 15.0698L14.5502 13.9098C14.4891 13.8639 14.4218 13.8268 14.3502 13.7998C14.3102 13.8198 14.2502 13.8498 14.1402 13.9598L13.7602 14.3398C13.4702 14.6298 13.0102 14.7098 12.6402 14.5798L12.4602 14.4998C12.2302 14.3798 11.9702 14.1998 11.6802 13.9498C11.4002 13.7098 11.1302 13.4598 10.8402 13.1798C10.5602 12.8898 10.3102 12.6198 10.0702 12.3398C9.86154 12.0999 9.67417 11.8423 9.51023 11.5698L9.40023 11.3098C9.37221 11.2089 9.35874 11.1045 9.36023 10.9998C9.36023 10.7198 9.46023 10.4698 9.65023 10.2698L10.0302 9.87981C10.1402 9.76981 10.1802 9.70981 10.2002 9.66981C10.1677 9.59893 10.1275 9.53186 10.0802 9.46981L8.91023 7.81981L8.79023 7.73981Z" fill="#2D3C52"/>
</svg>
